<?xml version="1.0" standalone="no"?>
<!DOCTYPE svg PUBLIC "-//W3C//DTD SVG 20010904//EN"
 "http://www.w3.org/TR/2001/REC-SVG-20010904/DTD/svg10.dtd">
<svg version="1.0" xmlns="http://www.w3.org/2000/svg"
 width="1024.000000pt" height="1024.000000pt" viewBox="0 0 1024.000000 1024.000000"
 preserveAspectRatio="xMidYMid meet">
<metadata>
Created by potrace 1.16, written by Peter Selinger 2001-2019
</metadata>
<g transform="translate(0.000000,1024.000000) scale(0.100000,-0.100000)"
fill="#000000" stroke="none">
<path d="M4878 8063 c6 -2 18 -2 25 0 6 3 1 5 -13 5 -14 0 -19 -2 -12 -5z"/>
<path d="M5213 8063 c9 -2 25 -2 35 0 9 3 1 5 -18 5 -19 0 -27 -2 -17 -5z"/>
<path d="M5067 7993 c18 -2 50 -2 70 0 21 2 7 4 -32 4 -38 0 -55 -2 -38 -4z"/>
<path d="M5286 7758 c-3 -29 -6 -71 -6 -94 l0 -41 58 -6 c82 -9 314 -54 397
-78 306 -89 622 -248 865 -437 427 -332 739 -842 849 -1389 12 -55 21 -114 21
-130 0 -16 3 -33 6 -36 10 -10 44 12 44 29 0 9 5 13 13 9 6 -4 5 -1 -4 7 -9 7
-23 52 -33 103 -32 169 -76 319 -101 345 -13 14 -37 59 -55 100 -85 203 -233
447 -381 628 -46 57 -95 124 -108 148 -13 25 -48 66 -77 91 -29 25 -51 50 -48
55 3 5 2 7 -3 6 -14 -4 -54 23 -48 33 4 5 3 8 -2 7 -14 -4 -54 23 -48 33 4 5
2 8 -3 7 -13 -4 -162 98 -154 107 4 3 2 5 -3 4 -11 -3 -75 28 -75 37 0 3 4 3
9 -1 5 -3 13 0 17 6 5 9 0 10 -15 6 -26 -6 -84 20 -75 35 4 7 2 8 -4 4 -14 -9
-75 22 -67 34 3 5 -3 8 -12 8 -21 -1 -73 19 -73 27 0 4 4 4 8 1 4 -2 14 -1 22
5 11 6 4 8 -19 5 -19 -2 -50 3 -69 12 -33 16 -34 17 -11 24 20 7 20 7 -5 4
-27 -4 -47 1 -101 25 -11 5 -64 24 -117 43 -54 18 -94 37 -90 41 4 5 1 5 -6 1
-6 -4 -56 4 -110 17 -53 14 -146 33 -207 43 -60 9 -113 22 -116 27 -4 5 -12 6
-18 3 -7 -5 -11 4 -11 23 0 17 3 32 8 32 4 1 17 3 30 4 13 1 29 8 35 15 10 10
6 11 -20 7 -27 -5 -54 6 -42 18 6 5 198 -24 299 -45 225 -48 418 -117 642
-232 159 -80 412 -244 402 -260 -4 -6 -3 -8 3 -5 12 7 197 -143 206 -167 4
-11 19 -16 47 -16 32 0 48 -7 79 -35 29 -27 39 -31 37 -18 -2 10 -9 18 -17 18
-8 0 -14 7 -14 15 0 8 -6 16 -12 16 -7 1 -18 2 -24 3 -5 0 -7 5 -4 11 3 6 -1
7 -9 4 -10 -4 -16 -1 -16 9 0 8 -8 21 -17 28 -16 13 -17 12 -4 -3 25 -33 2
-18 -61 38 -35 31 -62 61 -61 65 2 5 -1 8 -5 6 -13 -3 -142 100 -134 108 4 3
2 6 -3 4 -18 -4 -45 13 -38 24 3 5 2 7 -4 4 -13 -8 -65 27 -56 38 5 4 3 5 -3
2 -14 -8 -66 27 -57 38 5 4 3 5 -3 2 -7 -4 -52 16 -100 45 -225 129 -506 238
-759 293 -90 20 -312 55 -344 55 -4 0 -11 -24 -15 -52z"/>
<path d="M4417 7726 c4 -5 -7 -6 -23 -2 -19 4 -24 3 -15 -3 16 -10 -57 -27
-99 -23 -20 2 -22 1 -10 -9 12 -9 11 -10 -8 -6 -14 3 -20 1 -15 -6 4 -7 0 -8
-11 -4 -10 4 -15 3 -11 -3 3 -6 2 -10 -4 -10 -5 0 -18 -3 -28 -6 -15 -5 -15
-4 -3 5 13 9 13 11 0 11 -8 0 -22 -5 -30 -10 -13 -9 -13 -10 0 -11 10 0 8 -3
-5 -9 -27 -12 -43 -12 -25 0 8 5 10 10 5 10 -6 0 -18 -9 -28 -20 -18 -21 -37
-26 -37 -10 0 6 -5 10 -11 10 -6 0 -9 -6 -6 -14 7 -17 -63 -52 -73 -37 -4 7
-13 6 -26 -4 -19 -15 -19 -15 1 -9 11 3 8 -2 -9 -11 -15 -9 -36 -15 -45 -12
-10 2 -26 -2 -37 -10 -18 -14 -18 -15 6 -8 18 4 15 0 -12 -16 -43 -26 -46 -34
-18 -49 11 -6 20 -7 20 -1 0 5 6 11 13 14 9 3 12 -6 10 -34 -2 -42 10 -49 49
-28 11 6 22 9 24 6 3 -2 -11 -12 -31 -21 -20 -10 -41 -28 -47 -41 -5 -12 -60
-57 -122 -98 -176 -120 -310 -233 -469 -397 -201 -208 -251 -273 -375 -493
-49 -86 -58 -108 -47 -117 16 -13 20 -8 84 115 102 194 256 391 453 581 293
283 594 453 1053 594 76 24 89 34 74 62 -6 10 -7 23 -4 28 3 6 1 10 -4 10 -6
0 -11 9 -11 21 0 11 -5 30 -11 41 -8 15 -8 19 0 14 6 -4 11 -2 11 3 0 12 -6
13 -62 15 -20 1 -34 -3 -31 -8z m39 -45 c-4 -6 -14 -7 -23 -4 -15 6 -14 7 3
13 22 9 29 6 20 -9z m14 -25 c0 -8 -24 -20 -63 -30 -35 -8 -73 -18 -83 -22
-16 -5 -16 -4 -4 5 8 6 39 16 68 22 29 7 57 18 63 26 14 17 19 17 19 -1z m20
-53 c0 -5 -37 -17 -83 -29 -85 -22 -268 -86 -347 -122 -49 -22 -98 -38 -89
-28 16 17 304 127 424 162 92 26 95 27 95 17z m-220 -18 c-46 -18 -64 -17 -25
0 17 8 37 14 45 14 8 0 -1 -7 -20 -14z m-155 -15 c3 -5 2 -10 -4 -10 -5 0 -13
5 -16 10 -3 6 -2 10 4 10 5 0 13 -4 16 -10z"/>
<path d="M5378 7669 c-8 -6 1 -9 25 -9 20 0 37 2 37 4 0 9 -50 12 -62 5z"/>
<path d="M4004 7594 c-18 -14 -18 -14 6 -3 31 14 36 19 24 19 -6 0 -19 -7 -30
-16z"/>
<path d="M3186 7552 c-3 -5 1 -9 9 -9 8 0 12 4 9 9 -3 4 -7 8 -9 8 -2 0 -6 -4
-9 -8z"/>
<path d="M3129 7503 c-13 -16 -12 -17 4 -4 9 7 17 15 17 17 0 8 -8 3 -21 -13z"/>
<path d="M3466 7512 c-3 -5 1 -9 9 -9 8 0 12 4 9 9 -3 4 -7 8 -9 8 -2 0 -6 -4
-9 -8z"/>
<path d="M6000 7499 c0 -5 5 -7 10 -4 6 3 10 8 10 11 0 2 -4 4 -10 4 -5 0 -10
-5 -10 -11z"/>
<path d="M3435 7491 c-3 -5 -2 -12 3 -15 5 -3 9 1 9 9 0 17 -3 19 -12 6z"/>
<path d="M3758 7488 c5 -5 16 -8 23 -6 8 3 3 7 -10 11 -17 4 -21 3 -13 -5z"/>
<path d="M3401 7466 c-8 -10 -9 -16 -1 -21 5 -3 10 -5 11 -3 4 18 7 38 4 38
-1 0 -8 -6 -14 -14z"/>
<path d="M3693 7455 c0 -8 4 -12 9 -9 5 3 6 10 3 15 -9 13 -12 11 -12 -6z"/>
<path d="M3061 7446 c-8 -10 -9 -16 -1 -21 6 -4 9 -1 8 7 -2 7 3 12 10 10 8
-1 11 2 7 8 -8 13 -10 13 -24 -4z"/>
<path d="M3636 7429 c-16 -10 -34 -15 -39 -12 -6 3 -7 1 -3 -5 3 -6 -3 -16
-14 -22 -11 -6 -20 -9 -20 -6 0 2 -15 -10 -32 -26 -18 -17 -33 -34 -33 -39 0
-4 -4 -11 -9 -16 -5 -4 -6 -3 -2 4 3 6 2 14 -4 18 -6 3 -13 -1 -16 -9 -3 -9
-11 -13 -18 -9 -7 4 -7 1 1 -9 7 -8 9 -19 5 -23 -4 -5 -1 -5 6 -1 7 4 9 12 6
18 -5 7 -1 9 9 5 11 -4 22 2 33 18 9 14 20 23 24 20 5 -3 15 4 23 15 7 11 17
17 20 14 4 -4 9 1 13 10 3 9 10 13 15 10 5 -3 12 2 15 10 3 9 9 14 13 12 4 -3
17 4 30 13 32 25 13 33 -23 10z"/>
<path d="M6138 7443 c7 -3 16 -2 19 1 4 3 -2 6 -13 5 -11 0 -14 -3 -6 -6z"/>
<path d="M3351 7426 c-8 -10 -8 -16 2 -24 10 -9 13 -6 13 13 0 29 0 29 -15 11z"/>
<path d="M6860 7366 c0 -2 8 -10 18 -17 15 -13 16 -12 3 4 -13 16 -21 21 -21
13z"/>
<path d="M6935 7300 c10 -11 20 -20 23 -20 3 0 -3 9 -13 20 -10 11 -20 20 -23
20 -3 0 3 -9 13 -20z"/>
<path d="M2915 7291 c-3 -5 -2 -12 3 -15 5 -3 9 1 9 9 0 17 -3 19 -12 6z"/>
<path d="M4920 7280 c-259 -21 -490 -85 -735 -205 -591 -288 -987 -788 -1115
-1405 -11 -57 -25 -109 -31 -116 -5 -6 -6 -25 -3 -43 4 -17 3 -31 -2 -31 -15
0 -22 -283 -9 -372 6 -44 5 -58 -5 -58 -8 0 -11 10 -8 31 4 28 3 30 -19 26
-21 -4 -23 -1 -22 37 l2 41 7 -35 c7 -32 8 -31 10 20 1 30 5 80 9 110 5 43 3
58 -9 67 -12 10 -13 14 -2 21 11 8 11 10 -2 15 -13 5 -16 -1 -16 -34 0 -27 4
-38 11 -33 8 4 8 1 1 -12 -5 -11 -7 -26 -5 -34 3 -10 1 -9 -7 2 -6 10 -12 44
-14 75 -3 32 -7 69 -10 83 -15 64 -14 80 2 90 11 6 13 13 7 17 -13 11 -18 36
-5 28 5 -3 10 -1 10 4 0 6 -4 11 -10 11 -5 0 -10 5 -10 11 0 5 5 7 10 4 6 -4
9 -1 8 7 -2 7 3 12 10 10 8 -1 11 2 7 8 -4 6 -15 4 -30 -6 -24 -15 -30 -5 -12
22 9 15 -2 24 -21 17 -9 -4 -13 -2 -9 4 4 6 1 16 -6 22 -10 8 -14 7 -14 -4 0
-8 5 -11 10 -8 6 4 7 1 2 -7 -6 -10 -11 -9 -21 5 -7 10 -11 21 -9 26 3 4 0 11
-6 15 -8 4 -9 3 -5 -4 6 -11 3 -13 -21 -12 -5 0 -7 9 -7 20 1 11 -2 17 -7 14
-5 -2 -19 2 -32 11 -13 8 -27 12 -32 8 -4 -5 -5 -2 -1 5 4 7 2 12 -5 12 -7 0
-10 3 -6 6 3 3 21 -4 39 -15 l33 -22 -29 23 c-71 56 -66 44 -45 132 11 43 18
81 16 82 -2 2 -11 -2 -20 -9 -21 -15 -50 -128 -71 -273 -19 -129 -19 -136 -7
-414 14 -307 55 -527 147 -775 25 -66 47 -142 49 -168 8 -76 150 -341 242
-451 19 -23 21 -31 11 -37 -8 -6 0 -9 23 -9 19 0 41 -6 48 -12 11 -11 12 -10
6 1 -6 10 -4 12 4 7 7 -5 16 -19 22 -33 5 -13 14 -21 19 -18 6 4 9 1 8 -7 -2
-7 3 -12 10 -10 8 1 11 -1 8 -6 -3 -5 32 -44 77 -88 l82 -79 -70 76 c-39 41
-23 27 35 -32 91 -93 108 -106 124 -97 10 6 16 7 13 2 -3 -5 13 -29 36 -54 22
-25 34 -36 26 -25 -12 17 -10 16 19 -4 17 -12 32 -25 32 -28 0 -3 -8 1 -17 8
-16 13 -17 12 -5 -3 8 -9 19 -15 26 -12 7 3 19 -3 27 -13 12 -16 12 -17 -1 -8
-9 6 -4 0 10 -13 14 -12 30 -20 37 -17 7 2 15 -1 19 -7 4 -7 3 -8 -4 -4 -24
15 -11 -2 14 -19 15 -9 23 -12 19 -5 -6 9 -3 9 14 1 11 -7 21 -14 21 -17 0 -3
-4 -2 -10 1 -5 3 -10 4 -10 1 0 -3 10 -10 21 -17 17 -9 20 -8 14 3 -5 7 3 1
18 -14 26 -28 44 -38 31 -17 -4 8 0 8 15 0 11 -7 21 -14 21 -17 0 -3 -5 -2
-10 1 -6 3 -10 4 -10 1 0 -3 10 -10 21 -17 17 -9 20 -8 14 3 -3 7 -1 6 7 -3 7
-9 19 -14 25 -12 7 3 16 -3 19 -12 4 -9 46 -36 95 -61 82 -40 125 -57 89 -34
-8 5 -10 10 -5 10 6 0 19 -9 28 -21 10 -11 25 -18 33 -15 9 3 12 2 9 -4 -4 -7
3 -9 19 -6 14 3 26 0 26 -6 0 -5 -7 -8 -15 -4 -11 4 -10 -1 4 -22 20 -28 31
-98 18 -119 -4 -7 -20 -21 -36 -32 -21 -15 -28 -17 -28 -6 0 8 5 11 10 8 6 -3
7 -2 4 4 -3 5 -19 8 -36 5 -26 -4 -33 -14 -70 -95 -22 -51 -41 -86 -41 -78 0
8 -3 12 -6 8 -14 -13 -327 130 -317 146 3 6 1 7 -5 3 -13 -8 -72 23 -72 37 0
4 -3 6 -8 3 -11 -7 -83 40 -74 49 4 4 2 5 -4 2 -12 -7 -127 66 -119 76 3 4 2
5 -1 2 -12 -8 -45 16 -38 27 4 6 3 8 -3 5 -6 -4 -24 3 -39 15 -38 28 -54 43
-34 33 9 -5 12 -4 7 1 -5 5 -13 10 -18 10 -5 1 -14 2 -20 3 -5 0 -7 6 -4 11 4
6 3 9 -2 8 -15 -4 -54 23 -47 34 4 6 3 8 -3 5 -15 -10 -363 321 -363 346 0 3
10 4 21 2 12 -3 18 -1 15 3 -4 4 -17 7 -29 7 -13 1 -21 6 -19 14 1 7 -2 10 -7
7 -5 -3 -38 31 -74 76 -240 308 -413 678 -501 1071 -45 199 -57 311 -64 577
-3 140 -9 237 -12 215 l-5 -40 -60 0 -60 0 -8 -120 c-25 -371 50 -827 193
-1173 21 -52 36 -101 33 -110 -4 -10 -2 -13 5 -8 13 8 45 -61 35 -77 -3 -5 -2
-7 4 -4 12 8 46 -61 37 -75 -4 -6 -3 -8 3 -5 5 3 17 -7 27 -23 13 -23 15 -34
6 -52 -10 -20 -9 -21 3 -6 12 15 15 15 29 -10 8 -15 13 -33 10 -41 -3 -8 0
-11 6 -7 6 3 13 2 17 -4 3 -5 1 -10 -4 -10 -6 0 -11 -7 -11 -16 0 -13 3 -14
14 -5 11 9 17 6 30 -14 9 -14 14 -30 11 -35 -3 -5 0 -12 6 -15 5 -4 8 -13 5
-21 -3 -7 -1 -16 5 -19 5 -4 7 -11 4 -16 -4 -5 -1 -9 5 -9 6 0 8 -5 4 -12 -5
-9 -2 -9 9 1 19 15 23 26 5 15 -7 -5 -8 -3 -3 5 4 7 11 9 15 4 17 -19 90 -123
90 -128 0 -8 -15 -6 -15 3 0 4 -8 17 -17 30 -12 17 -18 20 -24 11 -4 -7 -2
-15 4 -17 13 -4 17 -23 5 -21 -26 4 -43 -2 -37 -13 5 -9 2 -9 -9 1 -9 7 -17
15 -17 16 0 1 8 9 17 16 14 12 16 12 8 0 -5 -9 -4 -12 3 -7 9 5 9 12 0 25 -10
16 -14 17 -25 5 -11 -11 -19 -11 -34 -3 -19 10 -20 9 -9 -11 6 -11 15 -18 19
-16 4 3 8 -1 8 -8 0 -18 -29 -1 -46 26 -10 16 -8 20 11 27 20 8 21 10 6 16
-10 4 -16 11 -13 15 3 5 1 11 -5 15 -6 4 -8 10 -6 14 3 4 -1 8 -8 8 -7 0 -13
-6 -13 -14 0 -7 6 -13 12 -13 6 0 12 -7 12 -15 0 -9 -9 -14 -23 -13 -12 1 -20
6 -18 10 3 4 1 8 -3 8 -5 0 -10 9 -11 20 -4 48 -5 50 -17 40 -9 -8 -14 -6 -19
5 -3 9 -2 14 3 11 5 -3 12 1 15 10 3 8 10 13 15 9 5 -3 12 -1 16 5 3 6 -4 10
-17 9 -38 -1 -60 7 -70 25 -5 10 -7 20 -4 23 3 3 -2 12 -12 20 -11 9 -11 12
-2 7 8 -4 5 3 -7 15 -24 23 -32 48 -11 35 7 -4 8 -3 4 5 -4 6 -12 8 -18 5 -7
-5 -9 0 -6 14 4 12 3 20 -2 17 -23 -14 -191 472 -176 511 3 8 2 13 -3 10 -9
-6 -48 167 -58 257 -5 44 -3 57 7 55 7 -2 15 4 17 12 4 12 3 12 -5 2 -5 -8
-13 -14 -18 -15 -5 -1 -9 -58 -9 -127 1 -141 24 -249 110 -498 251 -735 812
-1351 1539 -1690 l88 -42 899 1 c629 1 897 4 892 12 -3 6 -1 7 5 3 7 -4 17 -4
23 0 8 4 7 9 -2 15 -10 6 -9 8 6 8 36 -1 338 79 459 121 144 50 317 126 440
193 50 27 97 50 104 50 6 0 10 3 7 5 -8 9 118 81 129 75 6 -3 8 -3 4 2 -4 4
32 35 79 69 186 132 408 343 559 530 209 259 405 617 504 919 12 38 28 71 36
74 17 6 19 43 2 43 -7 0 -5 5 5 11 9 5 17 17 17 25 0 8 -4 13 -10 9 -13 -8
-61 5 -54 16 9 15 -6 10 -27 -10 -20 -18 -20 -19 16 -25 21 -4 35 -9 32 -12
-2 -3 -26 1 -53 7 -27 7 -43 14 -36 17 6 2 12 8 12 14 0 5 -9 6 -20 3 -16 -5
-20 -2 -21 17 l0 23 -9 -22 c-10 -24 -40 -32 -41 -10 0 6 -5 2 -12 -11 -8 -18
-8 -25 3 -32 16 -10 -16 -107 -95 -283 -95 -209 -294 -535 -319 -520 -6 3 -8
3 -4 -2 11 -12 -11 -47 -25 -39 -7 4 -9 4 -5 -1 11 -11 -11 -47 -24 -39 -7 4
-8 3 -4 -4 18 -30 -303 -349 -500 -498 -104 -78 -133 -96 -120 -76 2 4 1 14
-4 22 -7 11 -9 7 -7 -14 1 -18 -4 -31 -12 -34 -8 -2 -11 0 -8 5 4 6 -2 18 -13
28 -19 17 -20 17 -20 -3 0 -14 -11 -27 -29 -37 -36 -18 -45 -31 -30 -41 8 -4
9 -3 5 4 -5 8 -2 10 9 6 10 -4 15 -2 13 7 -2 7 6 13 17 14 11 0 20 6 20 14 0
8 5 16 11 18 6 2 11 -3 11 -12 0 -37 -353 -218 -575 -294 -73 -25 -77 -25 -60
-8 7 8 20 12 29 10 9 -3 22 2 30 10 8 7 19 12 26 10 6 -2 20 6 31 17 15 16 27
20 44 15 20 -5 21 -4 5 5 -20 13 -14 32 8 24 8 -3 26 6 40 20 27 27 46 36 26
12 -9 -11 -8 -15 5 -20 9 -4 19 -4 22 -1 3 3 2 5 -2 5 -4 0 -2 10 5 21 9 17 8
23 -2 30 -8 5 -10 9 -5 9 5 0 23 -9 40 -19 31 -19 31 -19 66 0 30 18 23 18
-17 2 -14 -6 -16 29 -4 61 5 14 10 16 15 7 6 -9 11 -9 22 0 8 6 23 9 33 6 11
-3 22 0 24 6 2 8 10 6 21 -6 16 -15 20 -16 47 -2 16 9 29 18 29 21 0 3 -5 2
-10 -1 -6 -4 -19 -1 -28 7 -15 11 -16 11 -4 -3 10 -14 10 -18 -2 -22 -23 -9
-27 19 -6 43 10 12 21 27 24 33 3 9 7 8 14 -2 6 -8 15 -10 22 -6 10 6 9 11 -4
20 -15 11 -15 14 -2 28 17 17 11 28 -10 20 -8 -3 -14 -1 -14 5 0 15 26 33 35
24 5 -4 4 -1 0 7 -6 11 -4 13 10 7 12 -4 26 1 42 16 14 13 26 22 29 21 12 -8
15 -1 5 11 -10 12 -9 14 6 11 10 -1 24 2 31 8 7 5 15 7 19 3 3 -3 2 -6 -4 -6
-6 0 -8 -11 -5 -25 2 -14 8 -22 13 -19 5 3 7 9 4 14 -3 5 0 12 6 15 5 4 8 14
4 24 -4 10 -3 12 3 6 6 -5 12 -19 15 -30 5 -19 5 -19 12 3 6 18 10 20 21 11 8
-7 18 -9 21 -5 4 4 1 11 -7 16 -8 6 -10 10 -5 10 6 0 11 9 12 20 1 12 -3 18
-9 14 -6 -4 -6 2 1 15 10 18 9 21 -7 21 -10 0 -23 5 -30 12 -8 8 -15 8 -25 0
-8 -7 -17 -9 -20 -5 -4 3 -7 -1 -7 -9 0 -9 -7 -19 -16 -22 -12 -5 -14 -9 -5
-20 8 -10 8 -16 -3 -26 -13 -10 -15 -8 -11 10 3 14 0 20 -8 17 -7 -3 -11 -9
-10 -15 1 -5 -5 -16 -15 -24 -15 -12 -16 -11 -4 4 9 11 10 18 2 23 -6 3 -8 11
-4 16 3 5 9 7 14 4 4 -3 11 2 14 10 3 8 9 14 13 13 4 -2 17 6 29 17 11 11 53
46 92 79 40 32 72 63 72 68 0 5 4 7 9 4 5 -3 12 1 15 9 4 13 2 13 -14 5 -28
-15 -56 -12 -102 10 -47 23 -48 23 -47 13 3 -20 -2 -34 -10 -28 -5 3 -12 1
-16 -4 -3 -6 -13 -7 -22 -4 -12 5 -14 3 -8 -8 4 -8 4 -11 0 -6 -5 4 -18 -1
-29 -10 -21 -18 -21 -18 -3 4 10 12 36 34 58 49 31 21 39 33 39 58 0 17 -4 27
-8 21 -4 -5 -18 -19 -32 -30 -19 -15 -22 -16 -11 -2 12 15 11 17 -4 17 -14 0
-15 3 -5 15 7 8 9 15 4 16 -5 0 -17 2 -26 4 -10 2 -21 -2 -25 -7 -4 -7 -1 -8
8 -3 12 8 12 6 0 -8 -7 -9 -17 -14 -22 -11 -5 3 -9 0 -9 -6 0 -6 -4 -9 -8 -6
-5 3 -8 -8 -7 -24 1 -17 -2 -30 -7 -30 -4 0 -8 -6 -8 -14 0 -17 -32 -15 -38 2
-2 7 -8 12 -13 12 -6 0 -7 -5 -4 -11 4 -6 -3 -13 -15 -16 -12 -3 -19 -11 -16
-19 3 -8 0 -13 -6 -11 -14 2 -18 -23 -6 -40 12 -15 -4 -24 -22 -13 -11 7 -11
11 -1 24 11 13 11 16 -3 16 -9 0 -16 -7 -16 -15 0 -9 -9 -15 -21 -15 -19 0
-20 2 -8 18 13 16 13 16 -7 0 -11 -10 -28 -18 -37 -18 -9 0 -17 -5 -17 -11 0
-5 -4 -8 -9 -5 -4 3 -16 -3 -26 -14 -15 -16 -15 -22 -5 -35 15 -18 -1 -20 -18
-3 -9 9 -12 9 -13 -2 -1 -8 -1 -19 0 -23 1 -4 -8 -3 -18 3 -13 6 -18 16 -14
27 4 11 2 14 -8 11 -9 -3 -13 -15 -11 -31 3 -26 -7 -35 -22 -20 -14 14 -46 9
-52 -9 -6 -19 -7 -20 -41 -22 -13 0 -22 3 -22 8 1 13 -23 26 -51 26 -18 0 -21
3 -12 9 10 6 9 10 -7 14 -13 3 -24 -1 -30 -11 -7 -13 -10 -12 -15 6 -4 12 -4
27 -1 34 4 7 1 6 -7 -3 -7 -9 -19 -14 -25 -12 -7 3 -13 0 -13 -6 0 -6 6 -11
13 -12 6 0 2 -4 -11 -9 -12 -5 -29 -7 -37 -4 -8 4 -15 2 -15 -4 0 -5 10 -9 23
-9 39 -1 44 -3 44 -18 0 -9 -7 -15 -16 -14 -9 1 -18 0 -21 -1 -3 -1 -18 -4
-35 -6 -16 -3 -35 -10 -41 -15 -13 -10 -39 13 -27 24 3 4 -2 7 -11 7 -13 0
-17 6 -13 20 4 15 0 20 -16 20 -16 0 -18 -3 -9 -12 7 -7 12 -16 12 -22 0 -5
-7 -1 -15 10 -11 15 -14 16 -15 4 0 -19 -43 -21 -62 -2 -9 9 -9 12 1 12 7 0 9
5 5 11 -4 8 -1 8 12 2 17 -8 28 -9 49 -4 3 0 1 11 -6 22 -7 13 -7 19 -1 15 6
-3 13 -2 17 4 8 12 52 13 59 1 9 -14 -20 -21 -33 -8 -8 8 -14 8 -21 1 -7 -7
-7 -11 2 -12 7 -1 27 -3 43 -5 17 -2 39 -1 50 4 14 5 15 8 5 9 -8 1 -4 6 10
10 24 8 24 8 -7 9 -17 1 -35 6 -38 11 -4 6 -24 7 -48 4 -41 -7 -49 3 -9 11 11
2 30 9 41 15 12 6 21 8 21 4 0 -3 7 -1 15 6 8 6 19 9 25 5 5 -3 10 -1 10 5 0
6 4 9 8 6 5 -3 27 6 51 20 48 27 54 29 49 13 -2 -6 -28 -20 -58 -32 -52 -21
-66 -37 -39 -46 6 -2 9 1 6 6 -4 6 11 10 34 11 44 2 59 8 59 23 0 6 -6 7 -12
3 -9 -5 -9 -3 1 9 7 9 18 14 23 11 5 -3 8 2 6 12 -2 12 4 20 17 22 11 2 29 11
39 21 11 9 16 11 12 4 -7 -14 43 -44 80 -48 17 -2 21 2 19 17 -3 16 -1 17 10
8 10 -8 15 -8 21 1 4 7 3 9 -4 5 -7 -4 -10 2 -9 15 1 12 9 24 19 27 10 2 16 8
13 12 -3 5 -1 11 4 15 6 3 8 12 4 21 -4 12 -8 12 -22 2 -14 -12 -15 -11 -2 5
12 16 17 16 25 5 13 -15 30 -17 43 -4 4 5 3 6 -4 2 -6 -3 -14 -2 -18 4 -3 5 1
10 9 10 9 0 16 4 16 10 0 5 -8 7 -17 3 -11 -3 -7 2 7 13 14 10 34 18 45 17 11
-2 15 0 8 3 -8 4 -3 13 15 29 19 17 30 20 40 13 9 -8 12 -6 12 5 0 15 67 82
113 112 15 10 24 22 20 29 -4 6 0 5 9 -2 11 -9 18 -10 23 -2 3 5 3 10 -1 10
-4 0 3 11 16 25 12 13 27 22 33 18 6 -3 7 -1 3 5 -4 6 7 24 24 40 16 16 30 35
30 41 0 7 5 9 10 6 6 -3 10 -1 10 4 0 6 18 30 40 53 22 24 40 49 40 56 0 7 4
11 9 8 5 -4 15 7 23 24 7 16 17 30 21 30 5 0 6 4 2 9 -3 6 3 14 12 20 10 6 14
11 8 11 -5 0 1 10 15 21 14 11 19 18 11 14 -9 -5 -8 1 4 19 10 14 22 26 27 26
5 0 6 5 3 10 -3 6 1 13 9 16 9 3 14 10 11 14 -3 5 3 16 12 26 10 10 16 19 15
21 -2 2 19 50 46 106 157 324 223 721 177 1074 -32 237 -94 452 -187 642 -29
58 -52 112 -51 119 0 7 -2 11 -5 8 -9 -9 -103 144 -96 156 4 6 2 8 -3 5 -12
-8 -48 40 -48 63 -1 8 -6 14 -12 13 -13 -3 -56 51 -47 59 2 3 -4 11 -13 19
-16 12 -17 12 -8 -1 6 -9 0 -5 -12 9 -12 14 -19 29 -16 34 3 6 2 7 -4 4 -5 -3
-41 26 -79 66 -38 39 -55 60 -39 47 l30 -25 -24 27 c-13 15 -27 25 -32 23 -4
-3 -18 5 -31 17 -16 15 -17 18 -3 8 20 -15 20 -15 1 7 -10 12 -21 22 -25 21
-14 -3 -40 15 -35 23 3 5 1 8 -4 7 -12 -4 -102 60 -102 73 0 5 -3 8 -7 7 -15
-3 -43 14 -37 23 3 5 2 9 -3 8 -19 -3 -34 2 -29 9 3 5 -1 9 -8 9 -7 0 -40 16
-74 37 -236 143 -570 249 -867 275 -132 12 -202 12 -345 1z m431 -96 c779
-108 1420 -657 1634 -1399 83 -287 96 -635 35 -917 -118 -544 -500 -1037
-1012 -1308 -73 -38 -86 -49 -75 -60 10 -12 9 -12 -4 -2 -18 13 -49 6 -49 -11
0 -6 -3 -8 -6 -5 -3 4 -42 -7 -87 -24 -122 -44 -329 -95 -443 -107 -127 -15
-395 -15 -498 -1 -43 6 -84 9 -92 6 -8 -3 -14 -1 -14 5 0 6 -8 9 -17 8 -10 -1
-25 1 -33 4 -8 3 -52 15 -97 27 -97 24 -225 68 -317 109 -36 17 -66 27 -66 23
0 -4 -4 -2 -8 4 -12 19 -138 84 -147 76 -5 -4 -5 -1 -1 6 6 10 -5 17 -19 10
-2 -2 -11 6 -20 17 -9 11 -14 13 -10 5 4 -8 -3 -4 -15 10 -12 14 -19 18 -15
10 4 -8 -3 -4 -15 10 -12 14 -18 18 -14 10 4 -8 -7 0 -24 18 -17 19 -36 31
-41 28 -5 -4 -13 -1 -17 5 -5 8 -3 9 7 4 16 -9 9 -2 -36 35 -21 18 -25 20 -15
5 8 -11 -41 37 -110 105 -69 69 -128 124 -133 122 -4 -1 -6 2 -5 7 2 5 -27 49
-63 97 -161 215 -264 428 -329 680 -48 185 -63 330 -57 539 7 202 31 346 91
529 60 183 180 411 287 547 16 20 26 39 24 43 -3 3 -2 4 1 2 7 -6 129 135 129
149 0 5 5 10 10 10 6 0 43 29 82 64 304 272 690 452 1083 506 135 18 387 18
521 -1z m-2622 -1448 c-5 -6 -9 -19 -9 -30 0 -10 -2 -17 -5 -14 -3 3 -3 25 1
49 6 33 9 39 14 24 4 -11 4 -24 -1 -29z m-22 -78 c-3 -8 -6 -5 -6 6 -1 11 2
17 5 13 3 -3 4 -12 1 -19z m324 -673 c2 -16 7 -35 11 -41 4 -6 9 -24 10 -40 1
-16 4 -33 8 -39 12 -19 12 -88 1 -81 -6 4 -11 20 -11 36 0 21 -4 28 -14 24 -7
-3 -16 2 -19 10 -4 9 -2 16 4 16 6 0 8 4 4 9 -3 5 -1 12 4 15 11 7 2 48 -13
58 -8 6 -8 8 0 8 6 0 9 13 6 33 -3 17 -2 30 1 27 3 -3 6 -18 8 -35z m66 -284
c6 -19 10 -38 7 -43 -3 -4 0 -8 7 -8 7 0 9 -3 6 -7 -4 -3 -3 -11 2 -17 4 -6
11 -19 14 -28 6 -17 4 -18 -42 -9 -2 1 1 7 7 14 8 9 7 21 -3 41 -8 16 -15 37
-15 47 0 11 -5 18 -11 17 -6 -2 -13 4 -14 13 -5 31 30 14 42 -20z m54 -159 c6
-16 5 -20 -7 -15 -8 3 -13 11 -10 19 3 7 1 15 -5 18 -5 2 -4 3 2 2 7 -1 16
-12 20 -24z m25 -50 c-3 -5 4 -25 14 -45 23 -42 24 -47 9 -47 -5 0 -7 5 -4 10
3 6 3 10 -2 10 -4 0 -15 13 -24 28 -16 28 -15 52 2 52 6 0 8 -4 5 -8z m44
-117 c0 -8 -2 -15 -4 -15 -2 0 -6 7 -10 15 -3 8 -1 15 4 15 6 0 10 -7 10 -15z
m33 -54 c12 -25 12 -29 1 -24 -8 3 -14 14 -14 25 0 10 -4 16 -10 13 -5 -3 -10
-1 -10 4 0 21 19 11 33 -18z m518 -498 c13 -16 12 -17 -3 -4 -17 13 -22 21
-14 21 2 0 10 -8 17 -17z m-1197 -174 c-3 -5 -10 -7 -15 -3 -5 3 -7 10 -3 15
3 5 10 7 15 3 5 -3 7 -10 3 -15z m892 -91 l29 -33 -32 29 c-31 28 -38 36 -30
36 2 0 16 -15 33 -32z m-799 -70 c7 -6 16 -7 21 -4 5 3 26 -16 47 -42 22 -26
32 -41 24 -35 -9 7 -20 9 -24 5 -5 -4 -5 -1 0 7 5 10 4 12 -3 7 -18 -11 4 -46
27 -41 12 2 33 -12 57 -37 22 -23 32 -37 24 -32 -8 5 -19 9 -25 9 -5 0 -10 7
-10 15 -1 8 -6 14 -13 13 -7 -2 -11 0 -9 5 1 4 -2 7 -8 7 -5 0 -9 -3 -7 -7 1
-5 -4 -8 -10 -9 -7 0 -5 -4 5 -8 18 -7 18 -8 1 -21 -10 -8 -15 -10 -11 -4 7
13 -7 27 -36 37 -11 4 -16 3 -12 -3 8 -13 -1 -13 -27 1 -12 6 -18 7 -14 1 3
-5 0 -15 -8 -21 -16 -14 -35 5 -31 31 2 10 -1 21 -6 24 -6 4 -6 11 1 19 8 10
8 15 -1 21 -8 5 -10 3 -4 -7 5 -8 4 -11 0 -6 -14 12 -16 45 -3 53 8 5 9 2 5
-10 -4 -10 -3 -15 3 -11 6 3 10 15 10 26 0 11 -4 17 -10 14 -5 -3 -7 0 -4 9 6
15 27 12 51 -6z m3513 12 c0 -5 -2 -10 -4 -10 -3 0 -8 5 -11 10 -3 6 -1 10 4
10 6 0 11 -4 11 -10z m-3590 -31 c0 -5 -4 -9 -10 -9 -5 0 -10 5 -10 11 0 5 -5
7 -12 3 -7 -4 -8 -3 -4 4 7 12 36 5 36 -9z m4050 7 c0 -2 -8 -10 -17 -17 -16
-13 -17 -12 -4 4 13 16 21 21 21 13z m-50 -41 c-7 -8 -17 -15 -23 -15 -6 0 -2
7 9 15 25 19 30 19 14 0z m130 -74 c-37 -25 -56 -22 -24 4 16 13 33 20 38 17
5 -3 -1 -12 -14 -21z m-168 -18 c-6 -9 -17 -18 -26 -19 -9 -1 -14 2 -10 7 3 5
9 7 14 4 4 -3 10 2 14 10 3 8 8 15 11 15 3 0 2 -8 -3 -17z m-3823 -22 c9 -15
7 -18 -12 -16 -12 0 -30 -2 -39 -7 -9 -4 -19 -4 -22 1 -8 12 20 34 33 27 5 -4
12 -2 16 4 9 14 13 13 24 -9z m106 -18 c11 -2 48 -32 83 -66 59 -59 62 -65 46
-78 -15 -12 -16 -12 -9 0 6 10 4 12 -6 6 -8 -5 -11 -5 -7 0 11 11 -12 36 -25
28 -5 -3 -7 -1 -3 5 3 6 2 13 -4 17 -6 4 -7 11 -4 17 5 7 2 8 -6 3 -9 -6 -11
-4 -5 6 7 11 5 11 -10 -1 -10 -8 -16 -10 -12 -3 4 6 3 14 -3 18 -6 4 -7 11 -4
17 5 7 2 8 -6 3 -8 -5 -11 -4 -6 3 4 7 -1 10 -14 7 -13 -3 -18 0 -14 7 5 7 2
8 -5 3 -15 -8 1 -30 22 -30 7 0 11 -8 9 -18 -2 -9 2 -18 8 -18 25 -3 29 -4 36
-11 4 -4 1 -14 -6 -23 -7 -8 -9 -15 -4 -15 5 0 0 -7 -10 -15 -23 -17 -56 -20
-56 -5 0 6 9 10 19 10 11 0 23 5 26 10 3 6 -1 10 -10 10 -9 0 -13 5 -10 10 4
6 11 7 17 4 7 -4 8 -2 4 5 -6 9 -14 8 -32 -3 -29 -20 -57 -21 -31 -2 24 19 11
86 -14 70 -6 -4 -6 -10 0 -18 6 -7 7 -17 3 -21 -4 -5 -1 -5 7 0 9 5 12 4 7 -3
-9 -14 -42 -10 -59 7 -6 7 -7 12 -2 11 29 -6 38 0 25 16 -11 12 -11 15 1 12 8
-2 13 3 12 10 -2 6 2 12 8 12 5 0 7 5 3 12 -5 7 -3 8 7 2 8 -4 23 -10 34 -11z
m1700 7 c13 -6 15 -9 5 -9 -8 0 -22 4 -30 9 -18 12 -2 12 25 0z m1953 -4 c-10
-7 -14 -17 -10 -21 4 -5 1 -5 -7 0 -12 7 -11 10 4 22 24 17 36 17 13 -1z
m-851 -11 c0 -8 -9 -15 -19 -15 -10 0 -18 -5 -18 -11 0 -6 9 -8 20 -4 11 3 20
2 20 -3 0 -6 -5 -12 -11 -14 -7 -2 -2 -16 13 -33 27 -34 30 -52 8 -65 -12 -8
-11 -10 8 -10 12 0 22 -6 22 -12 0 -9 4 -8 10 2 9 13 10 13 11 0 0 -10 3 -8 9
5 7 17 9 18 9 2 1 -10 -10 -22 -25 -27 -14 -6 -22 -14 -19 -20 3 -5 0 -10 -7
-10 -8 0 -23 -7 -34 -16 -10 -8 -14 -13 -8 -10 7 3 18 -1 25 -10 7 -8 8 -14 3
-13 -22 4 -35 -2 -29 -13 4 -7 -1 -4 -9 6 -9 11 -16 16 -16 12 0 -5 -8 -2 -17
5 -15 12 -16 12 -8 -1 4 -8 -1 -6 -12 5 -11 11 -18 25 -16 32 7 18 -6 33 -22
27 -10 -4 -12 -11 -5 -23 6 -13 5 -18 -5 -18 -8 0 -12 4 -9 9 8 12 -16 39 -28
32 -5 -3 -15 0 -23 6 -8 6 -18 9 -23 6 -11 -7 -52 31 -51 47 0 9 2 9 6 0 2 -7
11 -13 19 -13 8 0 14 -4 14 -10 0 -5 11 -10 25 -10 22 0 24 2 13 14 -10 10
-15 11 -21 2 -6 -7 -7 -6 -4 4 2 8 11 13 18 11 8 -2 28 -4 44 -6 17 -2 33 -3
37 -4 4 -1 5 -8 2 -16 -4 -8 -1 -15 4 -15 6 0 14 -9 17 -20 3 -11 10 -20 15
-20 9 0 8 19 -3 37 -4 7 3 20 18 31 32 25 32 35 0 20 -13 -6 -22 -15 -19 -19
3 -5 1 -9 -5 -9 -5 0 -9 8 -9 18 0 9 -1 24 -3 32 -3 10 2 14 16 12 11 -2 17
-1 13 3 -4 4 0 14 8 22 8 9 12 18 8 22 -4 3 -9 0 -11 -6 -3 -7 -9 -13 -14 -13
-6 0 -7 5 -3 12 5 8 2 9 -9 5 -10 -3 -17 -2 -17 4 0 6 -6 6 -18 0 -14 -8 -18
-5 -19 11 -2 17 3 19 27 16 17 -3 27 -2 24 1 -3 3 14 11 38 17 24 7 43 12 44
13 0 1 1 -6 1 -14z m987 -7 c-4 -5 -9 -7 -12 -4 -3 4 -17 -1 -31 -10 l-26 -15
22 19 c21 19 57 26 47 10z m-3877 -14 c0 -6 -7 -10 -16 -9 -9 2 -20 4 -24 4
-5 1 -6 5 -2 10 8 14 42 9 42 -5z m1880 10 c-3 -3 -12 -4 -19 -1 -8 3 -5 6 6
6 11 1 17 -2 13 -5z m53 -8 c0 -2 -9 -6 -20 -9 -11 -3 -18 -1 -14 4 5 9 34 13
34 5z m47 -12 c-3 -3 -12 -4 -19 -1 -8 3 -5 6 6 6 11 1 17 -2 13 -5z m746 -1
c-7 -2 -19 -2 -25 0 -7 3 -2 5 12 5 14 0 19 -2 13 -5z m-676 -9 c-3 -3 -12 -4
-19 -1 -8 3 -5 6 6 6 11 1 17 -2 13 -5z m627 -3 c4 -5 -3 -7 -14 -4 -23 6 -26
13 -6 13 8 0 17 -4 20 -9z m1132 -3 c4 -7 3 -8 -5 -4 -6 4 -14 1 -17 -7 -2 -7
-12 -14 -20 -14 -12 0 -9 5 7 18 29 22 26 22 35 7z m-1688 -5 c-10 -2 -26 -2
-35 0 -10 3 -2 5 17 5 19 0 27 -2 18 -5z m496 -8 c-4 -8 -10 -15 -16 -15 -5 0
-7 4 -3 9 3 5 -5 12 -17 14 -17 3 -15 5 9 6 25 1 31 -2 27 -14z m936 10 c0 -2
-13 -11 -30 -20 -38 -19 -40 -11 -2 9 31 17 32 18 32 11z m91 -19 c-6 -7 -8
-16 -4 -20 4 -4 -1 -4 -11 0 -13 5 -17 4 -12 -4 4 -6 -3 -16 -16 -23 -13 -6
-20 -8 -16 -4 4 4 0 14 -10 22 -16 12 -16 13 2 6 13 -4 17 -3 12 5 -5 8 -1 10
10 5 11 -4 15 -3 10 5 -7 12 24 33 37 25 4 -3 3 -10 -2 -17z m-1312 10 c-2 -2
-51 -5 -109 -8 -58 -3 -89 -2 -70 2 36 8 187 13 179 6z m231 -6 c13 -8 12 -10
-5 -11 -11 -1 -24 0 -30 2 -5 2 -44 6 -85 9 l-75 7 90 1 c50 1 97 -3 105 -8z
m-1313 -24 c0 -8 -6 -12 -15 -9 -11 5 -11 7 0 14 7 5 13 9 14 9 0 0 1 -6 1
-14z m2497 6 c3 -5 -1 -9 -9 -9 -8 0 -12 4 -9 9 3 4 7 8 9 8 2 0 6 -4 9 -8z
m256 -12 c0 -5 -5 -10 -11 -10 -5 0 -7 5 -4 10 3 6 8 10 11 10 2 0 4 -4 4 -10z
m-758 -9 c3 8 9 11 13 7 4 -4 3 -14 -3 -21 -7 -8 -9 -17 -5 -21 4 -4 -1 -4
-11 0 -10 4 -21 3 -25 -2 -3 -5 -17 -18 -31 -29 -19 -15 -22 -16 -11 -3 12 16
11 18 -12 16 -22 -2 -24 -5 -14 -17 8 -10 8 -13 1 -8 -7 4 -17 0 -24 -9 -11
-12 -15 -12 -21 -2 -7 10 -9 8 -9 -5 0 -12 -4 -16 -12 -10 -7 4 -24 8 -38 8
-17 0 -26 6 -28 20 -3 16 -1 18 9 8 15 -15 49 -17 49 -4 0 4 12 6 26 3 18 -3
25 -1 20 6 -3 6 3 13 14 17 11 4 18 11 15 16 -4 5 -1 9 4 9 6 0 11 -5 11 -10
0 -13 42 10 54 29 6 10 10 11 16 1 6 -9 9 -9 12 1z m213 -1 c-3 -5 -12 -10
-18 -10 -7 0 -6 4 3 10 19 12 23 12 15 0z m381 -11 c1 -5 2 -10 4 -11 5 -8 7
-37 2 -37 -19 3 -33 -2 -28 -10 3 -4 -6 -7 -20 -5 -14 1 -23 0 -20 -3 3 -4 -1
-15 -10 -25 -13 -13 -14 -21 -6 -31 9 -11 4 -13 -25 -10 -20 1 -40 8 -45 15
-5 9 -8 7 -8 -7 -1 -17 -3 -17 -11 5 -8 19 -12 22 -19 10 -5 -8 -6 -19 -3 -25
3 -5 0 -4 -8 3 -16 14 -33 16 -24 2 3 -6 -4 -10 -16 -10 -22 0 -22 0 -3 15 10
8 22 15 26 15 4 0 24 11 44 25 20 14 39 23 41 21 2 -2 16 7 30 20 14 13 28 22
31 19 3 -3 14 3 25 12 10 10 22 18 26 18 3 0 5 5 3 10 -2 6 0 6 5 2 4 -5 9
-13 9 -18z m-3655 1 c6 0 8 -4 5 -9 -8 -12 16 -29 36 -26 26 5 42 -20 23 -35
-21 -17 -31 -5 -14 17 13 16 12 17 -4 4 -13 -10 -21 -11 -29 -3 -14 14 -51 -4
-42 -21 5 -9 4 -9 -5 -1 -8 7 -9 18 -2 36 7 18 6 29 -2 38 -10 10 -8 12 6 6
10 -3 23 -6 28 -6z m3234 -10 c-3 -5 -12 -10 -18 -10 -7 0 -6 4 3 10 19 12 23
12 15 0z m109 -12 c-5 -8 -1 -9 12 -5 18 7 18 7 0 -8 -11 -8 -26 -15 -33 -15
-7 0 -13 -9 -13 -20 0 -28 23 -25 89 11 31 17 46 22 33 12 -13 -11 -43 -30
-67 -43 l-44 -24 -21 23 c-11 13 -20 30 -20 38 0 9 -5 11 -12 7 -7 -4 -10 -4
-6 0 3 4 9 7 13 6 3 0 12 6 21 14 8 8 22 12 31 9 12 -5 14 -3 8 7 -5 9 -4 11
4 6 6 -4 8 -12 5 -18z m156 17 c0 -2 -10 -9 -22 -15 -22 -11 -22 -10 -4 4 21
17 26 19 26 11z m-3554 -49 c2 -12 -4 -13 -35 -7 -2 1 2 8 9 16 14 16 23 13
26 -9z m268 -108 c-8 -13 -35 4 -30 18 5 14 -5 18 -32 15 -7 -1 -12 4 -10 11
2 7 0 14 -5 16 -18 6 -25 1 -20 -17 3 -10 0 -22 -6 -25 -6 -4 -11 -2 -11 4 0
6 -5 8 -12 4 -9 -6 -9 -3 0 9 16 19 8 39 -13 30 -8 -3 -15 0 -15 6 0 11 21 15
50 11 11 -1 10 4 -5 21 -11 13 10 -3 47 -36 37 -32 65 -62 62 -67z m-190 60
c-7 -12 -34 -10 -34 2 0 6 5 10 11 10 8 0 9 4 0 13 -6 8 -8 17 -4 21 8 8 33
-35 27 -46z m2796 48 c0 -3 -4 -8 -10 -11 -5 -3 -10 -1 -10 4 0 6 5 11 10 11
6 0 10 -2 10 -4z m310 -6 c-8 -5 -19 -10 -25 -10 -5 0 -3 5 5 10 8 5 20 10 25
10 6 0 3 -5 -5 -10z m-170 -30 c0 -5 -5 -10 -11 -10 -5 0 -7 5 -4 10 3 6 8 10
11 10 2 0 4 -4 4 -10z m49 -12 c7 -2 -3 -9 -24 -15 -35 -11 -36 -11 -21 6 9
10 13 22 9 26 -5 5 -1 4 7 -1 8 -6 21 -13 29 -16z m51 12 c-8 -5 -19 -10 -25
-10 -5 0 -3 5 5 10 8 5 20 10 25 10 6 0 3 -5 -5 -10z m126 -2 c4 -7 4 -10 -1
-6 -11 11 -36 -12 -28 -26 3 -6 2 -7 -3 -3 -12 12 -12 30 1 39 15 11 23 10 31
-4z m-649 -13 c0 -8 -4 -15 -9 -15 -10 0 -11 14 -1 23 9 10 10 9 10 -8z m584
-18 c-10 -9 -11 -8 -5 6 3 10 9 15 12 12 3 -3 0 -11 -7 -18z m-366 3 c3 -5 1
-10 -4 -10 -6 0 -11 5 -11 10 0 6 2 10 4 10 3 0 8 -4 11 -10z m-2713 -31 c-20
-23 -16 -23 -35 -1 -15 16 -13 17 18 19 32 2 33 1 17 -18z m101 -3 c4 -10 1
-13 -8 -9 -8 3 -12 9 -9 14 7 12 11 11 17 -5z m2732 -4 c-3 -3 -11 0 -18 7 -9
10 -8 11 6 5 10 -3 15 -9 12 -12z m-88 2 c-3 -3 -12 -4 -19 -1 -8 3 -5 6 6 6
11 1 17 -2 13 -5z m223 -2 c0 -5 -6 -9 -12 -10 -7 0 -24 -3 -38 -7 -21 -5 -20
-4 5 9 36 17 45 19 45 8z m-173 -8 c-3 -3 -12 -4 -19 -1 -8 3 -5 6 6 6 11 1
17 -2 13 -5z m517 -2 c2 -4 -5 -9 -17 -9 -17 -2 -19 0 -7 7 18 12 18 12 24 2z
m179 1 c-7 -2 -19 -2 -25 0 -7 3 -2 5 12 5 14 0 19 -2 13 -5z m-3443 -13 c0
-5 -12 -10 -26 -10 -14 0 -23 4 -19 10 3 6 15 10 26 10 10 0 19 -4 19 -10z
m174 -9 c17 -19 17 -19 0 -17 -9 2 -18 10 -20 19 -3 21 -1 21 20 -2z m1273 13
c-3 -3 -12 -4 -19 -1 -8 3 -5 6 6 6 11 1 17 -2 13 -5z m1281 -24 c27 -26 29
-80 5 -103 -34 -30 -70 -31 -97 -3 -35 34 -35 78 0 105 34 27 64 27 92 1z
m112 16 c0 -10 -57 -32 -70 -28 -9 3 -1 10 20 18 39 14 50 16 50 10z m-249
-72 c-3 -39 -6 -45 -15 -33 -6 9 -17 14 -25 11 -9 -3 -12 3 -9 24 3 16 3 23 1
17 -3 -7 -9 -13 -15 -13 -5 0 -7 7 -4 16 3 9 6 20 6 25 0 5 11 7 25 3 17 -4
25 -2 25 7 0 10 2 11 8 2 4 -6 6 -33 3 -59z m609 58 c0 -13 -12 -22 -22 -16
-10 6 -1 24 13 24 5 0 9 -4 9 -8z m-1796 -11 c4 -5 -3 -7 -14 -4 -23 6 -26 13
-6 13 8 0 17 -4 20 -9z m323 3 c-3 -3 -12 -4 -19 -1 -8 3 -5 6 6 6 11 1 17 -2
13 -5z m-1513 -25 c-3 -5 -10 -7 -15 -3 -5 3 -7 10 -3 15 3 5 10 7 15 3 5 -3
7 -10 3 -15z m3201 2 c-3 -6 -11 -11 -17 -11 -6 0 -6 6 2 15 14 17 26 13 15
-4z m-1650 -26 c41 -41 28 -93 -30 -115 -51 -19 -103 36 -83 90 20 54 73 66
113 25z m-1506 1 c9 -11 9 -16 -1 -22 -7 -4 -10 -4 -6 1 4 4 3 14 -3 22 -6 7
-9 13 -6 13 2 0 10 -6 16 -14z m1315 -1 c-4 -8 -1 -15 5 -15 6 0 11 5 11 10 0
6 4 10 10 10 5 0 6 -8 3 -17 -6 -16 -5 -17 13 -3 17 14 18 14 6 -2 -9 -11 -10
-22 -3 -35 12 -22 24 -55 25 -68 1 -5 6 -10 13 -10 7 0 18 -6 25 -14 11 -12
10 -12 -2 -5 -8 5 -17 9 -20 10 -37 11 -49 18 -45 24 3 5 -3 6 -14 3 -10 -3
-22 0 -25 6 -4 6 -16 11 -28 11 -17 0 -18 2 -8 15 7 8 8 15 3 15 -5 0 -8 17
-7 38 3 46 0 42 24 42 13 0 18 -5 14 -15z m-1494 -5 c0 -5 -2 -10 -4 -10 -3 0
-8 5 -11 10 -3 6 -1 10 4 10 6 0 11 -4 11 -10z m216 -36 c2 -12 -1 -13 -12 -3
-7 6 -11 16 -8 21 7 11 17 3 20 -18z m-182 -2 c3 -5 -1 -9 -9 -9 -8 0 -12 4
-9 9 3 4 7 8 9 8 2 0 6 -4 9 -8z m3189 -21 c3 -14 1 -18 -9 -14 -15 6 -18 16
-7 26 9 10 10 9 16 -12z m-523 -1 c-18 -12 -30 -13 -30 -2 0 4 10 9 22 9 18 2
20 0 8 -7z m-2420 -6 c0 -8 -19 -13 -24 -6 -3 5 1 9 9 9 8 0 15 -2 15 -3z
m2825 -4 c3 -5 2 -10 -4 -10 -5 0 -13 5 -16 10 -3 6 -2 10 4 10 5 0 13 -4 16
-10z m-3021 -12 c-3 -4 -9 -8 -15 -8 -5 0 -9 4 -9 8 0 5 7 9 15 9 8 0 12 -4 9
-9z m220 -9 c-3 -6 2 -9 12 -7 12 2 18 -2 16 -11 -2 -8 3 -11 12 -8 16 7 32
-8 18 -17 -12 -7 -65 30 -68 48 -1 9 2 14 7 10 5 -3 7 -10 3 -15z m2337 1
c-25 -21 -61 -27 -61 -10 0 6 13 10 29 10 17 0 33 5 36 10 3 6 9 10 13 10 4
-1 -4 -10 -17 -20z m-1571 -11 c0 -6 -4 -7 -10 -4 -5 3 -10 4 -10 1 0 -2 -3
-13 -7 -23 -5 -14 -4 -16 8 -8 8 6 7 3 -3 -6 -9 -9 -15 -19 -12 -21 2 -3 -3
-11 -13 -19 -19 -16 -19 -19 12 58 15 38 35 50 35 22z m1495 11 c-3 -5 -12
-10 -18 -10 -7 0 -6 4 3 10 19 12 23 12 15 0z m-832 -15 c-3 -9 -8 -14 -10
-11 -3 3 -2 9 2 15 9 16 15 13 8 -4z m-23 -24 c0 -10 -31 -23 -67 -27 -13 -1
-23 2 -23 7 0 5 10 9 23 9 12 0 29 5 37 10 19 12 30 13 30 1z m-1290 -27 c0
-2 -8 0 -19 5 -10 6 -22 7 -26 3 -5 -4 -5 -1 -1 6 5 9 12 9 27 2 10 -6 19 -13
19 -16z m2445 -82 c-3 -3 -11 0 -18 7 -9 10 -8 11 6 5 10 -3 15 -9 12 -12z
m-2276 -6 c14 -8 26 -21 27 -30 2 -15 0 -15 -29 1 -51 30 -49 57 2 29z m2250
-1 c-9 -9 -210 -57 -216 -51 -3 3 13 8 36 12 23 4 44 11 47 15 3 5 9 7 13 5 4
-3 27 1 52 9 45 14 76 19 68 10z m-2181 -34 c11 -6 10 -10 -4 -15 -9 -3 -19
-4 -22 -1 -3 3 1 5 9 5 11 0 11 2 -1 10 -8 5 -10 10 -5 10 6 0 16 -4 23 -9z
m85 -60 c-5 -12 -3 -13 6 -5 18 16 55 6 41 -11 -16 -19 -43 -8 -80 31 l-32 35
35 -17 c25 -12 34 -22 30 -33z m634 43 c-3 -3 -12 -4 -19 -1 -8 3 -5 6 6 6 11
1 17 -2 13 -5z m1190 -17 c-22 -5 -47 -6 -58 -1 -14 7 -3 9 38 10 56 1 57 1
20 -9z m-1090 -3 c-3 -3 -12 -4 -19 -1 -8 3 -5 6 6 6 11 1 17 -2 13 -5z m60
-10 c-3 -3 -12 -4 -19 -1 -8 3 -5 6 6 6 11 1 17 -2 13 -5z m956 -1 c-7 -2 -19
-2 -25 0 -7 3 -2 5 12 5 14 0 19 -2 13 -5z m-880 -10 c-7 -2 -21 -2 -30 0 -10
3 -4 5 12 5 17 0 24 -2 18 -5z m757 -9 c0 -2 -16 -4 -35 -4 -19 0 -35 4 -35 8
0 4 16 6 35 4 19 -2 35 -6 35 -8z m68 9 c-10 -2 -28 -2 -40 0 -13 2 -5 4 17 4
22 1 32 -1 23 -4z m-745 -10 c-7 -2 -21 -2 -30 0 -10 3 -4 5 12 5 17 0 24 -2
18 -5z m-854 -12 c7 -5 9 -11 5 -14 -5 -3 -15 1 -22 9 -14 16 -5 18 17 5z
m1293 2 c-73 -2 -190 -2 -260 0 -70 1 -10 3 133 3 143 0 200 -2 127 -3z
m-1260 -49 c-8 -14 -9 -13 -9 10 0 18 3 24 9 18 7 -7 7 -16 0 -28z m-103 19
c-1 -5 2 -17 6 -29 7 -21 37 -26 62 -11 17 11 25 -9 11 -25 -7 -7 -13 -19 -14
-25 -3 -34 -4 -36 -17 -24 -8 6 -18 7 -23 3 -4 -4 -3 1 4 10 11 14 10 16 -7
11 -21 -5 -26 6 -22 49 1 9 -8 19 -20 23 -17 6 -19 9 -8 16 17 11 29 11 28 2z
m144 -38 c-9 -19 -18 -33 -21 -31 -4 5 26 66 33 66 3 0 -3 -16 -12 -35z m-163
4 c0 -5 -9 -9 -20 -9 -11 0 -20 4 -20 8 0 4 9 8 20 9 11 1 20 -2 20 -8z m7
-55 c-3 -3 -12 -4 -19 -1 -8 3 -5 6 6 6 11 1 17 -2 13 -5z m139 -16 c4 -7 3
-8 -4 -4 -7 4 -12 2 -12 -5 0 -7 -3 -10 -6 -6 -6 5 3 27 11 27 2 0 7 -5 11
-12z m361 -4 c-3 -3 -12 -4 -19 -1 -8 3 -5 6 6 6 11 1 17 -2 13 -5z m-542 -22
c-3 -3 -11 0 -18 7 -9 10 -8 11 6 5 10 -3 15 -9 12 -12z m592 12 c-3 -3 -12
-4 -19 -1 -8 3 -5 6 6 6 11 1 17 -2 13 -5z m40 -10 c-3 -3 -12 -4 -19 -1 -8 3
-5 6 6 6 11 1 17 -2 13 -5z m106 -21 c-7 -2 -19 -2 -25 0 -7 3 -2 5 12 5 14 0
19 -2 13 -5z m77 -13 c0 -5 -7 -7 -15 -4 -8 4 -15 8 -15 10 0 2 7 4 15 4 8 0
15 -4 15 -10z m58 -7 c-10 -2 -26 -2 -35 0 -10 3 -2 5 17 5 19 0 27 -2 18 -5z"/>
<path d="M6245 6450 c10 -11 20 -20 23 -20 3 0 -3 9 -13 20 -10 11 -20 20 -23
20 -3 0 3 -9 13 -20z"/>
<path d="M3968 6373 c-44 -48 -48 -79 -48 -361 0 -258 1 -269 23 -312 46 -90
78 -98 405 -99 l212 -1 0 -797 c0 -785 0 -797 21 -839 12 -26 36 -53 57 -66
37 -23 41 -23 412 -26 206 -2 394 0 418 3 73 11 142 87 142 157 l0 33 -13 -25
c-6 -14 -32 -35 -57 -47 -44 -23 -50 -23 -425 -23 -425 0 -429 1 -467 71 -17
32 -18 78 -18 846 l0 813 -266 0 c-222 0 -271 3 -299 16 -36 17 -70 58 -60 74
3 6 1 10 -4 10 -7 0 -12 99 -13 296 -3 280 -4 295 -20 277z"/>
<path d="M6284 6105 c0 -159 2 -223 3 -142 2 82 2 212 0 290 -1 78 -3 12 -3
-148z"/>
<path d="M4810 5983 c-91 -82 -100 -93 -76 -93 20 0 188 149 180 161 -9 15
-16 10 -104 -68z"/>
<path d="M5356 6051 c-6 -10 156 -161 173 -161 23 0 9 18 -66 86 -90 81 -100
88 -107 75z"/>
<path d="M4120 5835 c0 -13 34 -15 250 -15 216 0 250 2 250 15 0 13 -34 15
-250 15 -216 0 -250 -2 -250 -15z"/>
<path d="M5647 5844 c-19 -20 27 -24 249 -24 210 0 244 2 244 15 0 13 -34 15
-243 15 -134 0 -247 -3 -250 -6z"/>
<path d="M4023 5796 c0 -8 6 -12 14 -9 7 3 10 9 7 14 -8 14 -21 11 -21 -5z"/>
<path d="M6271 5771 c-10 -23 -27 -39 -55 -52 -37 -17 -70 -19 -318 -19 l-278
0 0 -44 0 -43 53 -7 c87 -10 422 -7 478 5 85 18 151 103 137 176 -3 14 -7 10
-17 -16z"/>
<path d="M4672 4110 c0 -14 2 -19 5 -12 2 6 2 18 0 25 -3 6 -5 1 -5 -13z"/>
<path d="M4750 4120 c0 -5 1 -10 3 -11 1 0 154 -3 341 -6 332 -5 406 -2 406
17 0 6 -144 10 -375 10 -243 0 -375 -4 -375 -10z"/>
<path d="M2643 3458 c-14 -16 -15 -20 -1 -35 9 -10 13 -23 11 -30 -2 -6 0 -13
4 -16 4 -3 8 12 8 34 1 21 -3 39 -8 39 -4 0 -6 4 -3 9 3 5 15 7 27 4 16 -4 17
-8 7 -14 -7 -5 -8 -9 -3 -10 6 0 18 -2 27 -4 16 -3 16 -1 3 18 -18 26 -50 29
-72 5z"/>
<path d="M2635 3340 c3 -5 8 -10 11 -10 2 0 4 5 4 10 0 6 -5 10 -11 10 -5 0
-7 -4 -4 -10z"/>
<path d="M2705 3320 c-3 -5 -1 -10 4 -10 6 0 11 5 11 10 0 6 -2 10 -4 10 -3 0
-8 -4 -11 -10z"/>
<path d="M2910 3227 c0 -2 15 -16 33 -33 l32 -29 -29 33 c-28 30 -36 37 -36
29z"/>
<path d="M5645 3179 c-4 -6 -5 -12 -2 -15 2 -3 7 2 10 11 7 17 1 20 -8 4z"/>
<path d="M5612 3096 c7 -8 15 -12 17 -11 5 6 -10 25 -20 25 -5 0 -4 -6 3 -14z"/>
<path d="M6545 3154 c-40 -20 -41 -22 -11 -20 14 0 28 7 31 14 3 7 10 10 16 6
8 -4 9 -3 5 4 -9 15 -5 15 -41 -4z"/>
<path d="M6479 3103 c-1 -4 -1 -12 0 -16 1 -5 -8 -5 -20 -2 -15 5 -19 4 -15
-4 10 -15 31 -14 45 3 8 10 9 16 1 21 -5 3 -11 3 -11 -2z"/>
<path d="M3674 2666 c11 -9 24 -16 30 -16 12 0 7 5 -24 19 -24 11 -24 11 -6
-3z"/>
<path d="M7000 7247 c0 -2 15 -16 33 -33 l32 -29 -29 33 c-28 30 -36 37 -36
29z"/>
<path d="M3119 7223 c-13 -16 -12 -17 4 -4 9 7 17 15 17 17 0 8 -8 3 -21 -13z"/>
<path d="M3069 7173 c-13 -16 -12 -17 4 -4 9 7 17 15 17 17 0 8 -8 3 -21 -13z"/>
<path d="M3006 7112 c-36 -38 -36 -39 -12 -38 14 1 29 5 33 10 4 4 4 6 -2 4
-5 -1 -11 2 -11 7 -1 6 3 9 10 7 6 -2 8 0 3 4 -4 4 0 16 10 26 30 34 7 18 -31
-20z"/>
<path d="M7135 7110 c10 -11 20 -20 23 -20 3 0 -3 9 -13 20 -10 11 -20 20 -23
20 -3 0 3 -9 13 -20z"/>
<path d="M2755 7111 c-3 -5 -2 -12 3 -15 5 -3 9 1 9 9 0 17 -3 19 -12 6z"/>
<path d="M3176 7031 c-17 -18 -36 -28 -47 -26 -11 2 -17 0 -14 -5 3 -4 1 -10
-5 -12 -6 -2 -12 -14 -15 -28 -4 -20 6 -14 55 35 33 33 60 61 60 62 0 7 -8 1
-34 -26z m-36 -34 c0 -2 -10 -12 -22 -23 l-23 -19 19 23 c18 21 26 27 26 19z"/>
<path d="M2686 7025 c-9 -14 -14 -25 -12 -25 3 0 -6 -11 -19 -25 -14 -13 -25
-31 -25 -40 0 -10 -5 -13 -12 -9 -7 4 -8 3 -4 -5 6 -9 11 -9 22 0 8 6 12 14
10 17 -9 8 15 43 25 37 5 -4 6 -11 3 -17 -4 -7 -2 -8 5 -4 6 4 9 11 6 16 -3 5
1 25 9 45 18 41 15 45 -8 10z"/>
<path d="M7200 7036 c0 -2 8 -10 18 -17 15 -13 16 -12 3 4 -13 16 -21 21 -21
13z"/>
<path d="M2919 7013 c-13 -16 -12 -17 4 -4 9 7 17 15 17 17 0 8 -8 3 -21 -13z"/>
<path d="M7087 6913 c19 -23 39 -40 45 -37 5 3 4 12 -3 20 -6 8 -14 12 -17 9
-6 -5 -38 37 -35 46 1 3 -4 6 -12 6 -8 0 0 -17 22 -44z"/>
<path d="M3054 6922 c-11 -10 -21 -25 -21 -35 0 -13 3 -14 14 -5 7 6 11 13 8
16 -3 3 2 14 12 24 20 23 14 23 -13 0z"/>
<path d="M2596 6901 c-3 -5 1 -14 8 -20 12 -10 13 -8 9 8 -6 23 -9 25 -17 12z"/>
<path d="M2552 6838 c-16 -24 -34 -54 -41 -68 -11 -24 -11 -24 3 -6 9 11 16
23 16 27 0 4 8 6 18 4 11 -2 19 3 19 10 0 8 -4 12 -9 9 -4 -3 -8 -1 -8 5 0 5
8 15 18 20 9 6 13 11 8 11 -5 0 -3 7 4 15 7 8 10 15 7 15 -3 0 -19 -19 -35
-42z"/>
<path d="M7172 6804 c95 -124 192 -284 273 -449 109 -223 114 -238 93 -275
-15 -27 -15 -33 7 -103 20 -63 57 -238 80 -379 3 -21 11 -38 18 -39 7 0 21 -2
33 -3 17 -2 20 2 16 21 -2 12 -8 21 -12 18 -11 -7 -16 10 -35 127 -9 54 -13
103 -9 109 4 8 3 9 -4 5 -8 -5 -12 1 -12 16 0 18 2 20 10 8 6 -9 10 -10 10 -3
0 7 -6 16 -13 20 -14 9 -62 172 -53 181 3 3 6 -2 6 -12 0 -9 4 -15 9 -12 4 3
6 -5 4 -18 -3 -13 0 -27 6 -30 7 -5 9 -1 5 8 -3 9 -2 16 2 16 5 0 9 14 10 30
1 17 -4 30 -10 30 -13 0 -40 31 -42 46 -3 28 -31 108 -60 170 -19 39 -34 77
-34 85 0 8 -7 23 -15 33 -8 10 -12 23 -8 29 3 6 1 7 -5 3 -6 -3 -17 7 -25 24
-14 27 -14 31 1 40 15 10 15 10 -1 8 -13 -2 -26 10 -42 40 -13 24 -30 51 -39
61 -9 10 -16 21 -16 24 0 11 -90 132 -98 132 -4 0 -6 5 -4 11 1 6 -3 16 -10
22 -12 10 -18 12 -35 12 -5 0 -1 5 7 10 12 8 13 10 1 10 -8 0 -24 8 -35 18
-11 9 1 -10 26 -44z"/>
<path d="M2949 6723 c-59 -82 -127 -193 -202 -330 l-46 -83 29 0 c22 0 29 6
35 27 8 32 130 245 137 238 2 -3 5 1 5 9 0 8 24 51 54 94 44 66 57 78 69 69
12 -9 13 -9 3 3 -7 8 -13 22 -13 32 0 32 -14 20 -71 -59z"/>
<path d="M2469 6698 c-12 -24 -15 -36 -7 -28 15 16 41 70 33 70 -3 0 -14 -19
-26 -42z"/>
<path d="M3057 6719 c7 -7 15 -10 18 -7 3 3 -2 9 -12 12 -14 6 -15 5 -6 -5z"/>
<path d="M3098 6703 c7 -3 16 -2 19 1 4 3 -2 6 -13 5 -11 0 -14 -3 -6 -6z"/>
<path d="M6580 6665 c19 -19 36 -35 39 -35 3 0 -10 16 -29 35 -19 19 -36 35
-39 35 -3 0 10 -16 29 -35z"/>
<path d="M7570 6630 c6 -11 13 -20 16 -20 2 0 0 9 -6 20 -6 11 -13 20 -16 20
-2 0 0 -9 6 -20z"/>
<path d="M7606 6567 c3 -10 9 -15 12 -12 3 3 0 11 -7 18 -10 9 -11 8 -5 -6z"/>
<path d="M7628 6544 c-3 -3 18 -56 47 -117 29 -62 55 -122 59 -135 4 -12 11
-20 15 -17 5 2 3 20 -3 39 -6 19 -14 32 -18 30 -7 -5 -12 19 -9 39 1 5 -3 6
-9 2 -6 -4 -10 4 -10 19 0 14 -4 26 -10 26 -5 0 -10 9 -10 20 0 11 -4 20 -10
20 -5 0 -10 7 -10 16 0 8 -7 22 -15 31 -8 8 -13 19 -10 24 7 10 2 12 -7 3z"/>
<path d="M2486 6487 c3 -10 9 -15 12 -12 3 3 0 11 -7 18 -10 9 -11 8 -5 -6z"/>
<path d="M7570 6483 c5 -2 10 -16 10 -29 0 -14 4 -23 10 -19 12 7 -3 48 -19
51 -6 1 -7 0 -1 -3z"/>
<path d="M2460 6462 c0 -5 7 -9 15 -9 8 0 12 4 9 9 -3 4 -9 8 -15 8 -5 0 -9
-4 -9 -8z"/>
<path d="M7803 6437 c0 -15 3 -24 8 -21 5 3 9 0 9 -7 0 -7 3 -10 6 -7 3 4 -1
19 -9 34 l-14 28 0 -27z"/>
<path d="M2532 6405 c-17 -37 -14 -45 4 -12 9 16 14 31 11 33 -2 2 -9 -7 -15
-21z"/>
<path d="M2322 6395 c-17 -37 -14 -45 4 -12 9 16 14 31 11 33 -2 2 -9 -7 -15
-21z"/>
<path d="M7600 6395 c0 -8 2 -15 4 -15 2 0 6 7 10 15 3 8 1 15 -4 15 -6 0 -10
-7 -10 -15z"/>
<path d="M7620 6364 c0 -14 4 -23 10 -19 6 4 10 -7 10 -24 0 -17 -5 -31 -12
-31 -6 0 -8 -3 -5 -6 4 -4 13 -1 22 6 13 11 15 9 15 -13 0 -15 9 -42 20 -62
11 -20 20 -45 20 -56 0 -11 5 -17 10 -14 10 6 4 45 -9 55 -3 3 -7 12 -9 20 -4
22 -64 170 -68 170 -2 0 -4 -12 -4 -26z"/>
<path d="M7820 6375 c0 -8 2 -15 4 -15 2 0 6 7 10 15 3 8 1 15 -4 15 -6 0 -10
-7 -10 -15z"/>
<path d="M7840 6365 c-1 -5 -3 -18 -5 -27 -2 -10 1 -18 5 -18 16 0 21 20 11
37 -6 10 -11 14 -11 8z"/>
<path d="M2482 6294 c-5 -16 -14 -38 -18 -49 -7 -17 -6 -18 8 -5 9 8 16 17 16
20 0 3 0 14 1 24 1 18 2 18 20 2 17 -15 18 -20 6 -43 -11 -21 -11 -31 -2 -46
41 -67 39 -65 32 -30 -7 33 9 78 24 68 10 -6 34 21 37 41 1 8 -2 16 -7 20 -5
3 -9 0 -9 -7 0 -10 -37 -49 -46 -49 -6 0 3 30 14 43 10 12 9 16 -8 20 -11 3
-18 1 -14 -4 3 -5 -2 -9 -10 -9 -8 0 -19 7 -24 16 -8 14 -11 12 -20 -12z m118
-28 c0 -2 -8 -10 -17 -17 -16 -13 -17 -12 -4 4 13 16 21 21 21 13z"/>
<path d="M7864 6308 c3 -9 0 -18 -6 -20 -7 -3 -8 -10 -3 -17 6 -11 10 -10 17
3 6 10 5 22 -2 34 -10 15 -11 15 -6 0z"/>
<path d="M2271 6254 c0 -11 3 -14 6 -6 3 7 2 16 -1 19 -3 4 -6 -2 -5 -13z"/>
<path d="M7879 6263 c0 -5 -2 -16 -4 -25 -4 -23 11 -33 19 -13 3 8 1 15 -4 15
-5 0 -7 7 -4 15 4 8 3 15 0 15 -3 0 -6 -3 -7 -7z"/>
<path d="M2346 6245 c4 -8 11 -15 16 -15 6 0 5 6 -2 15 -7 8 -14 15 -16 15 -2
0 -1 -7 2 -15z"/>
<path d="M7767 6233 c-3 -5 -1 -17 4 -28 7 -17 8 -17 8 8 1 27 -4 34 -12 20z"/>
<path d="M2251 6194 c0 -11 3 -14 6 -6 3 7 2 16 -1 19 -3 4 -6 -2 -5 -13z"/>
<path d="M7902 6178 c-1 -26 1 -30 9 -15 6 10 6 23 1 33 -7 12 -9 8 -10 -18z"/>
<path d="M2436 6175 c-9 -26 -7 -32 5 -12 6 10 9 21 6 23 -2 3 -7 -2 -11 -11z"/>
<path d="M7786 6181 c-4 -7 -5 -15 -2 -18 9 -9 19 4 14 18 -4 11 -6 11 -12 0z"/>
<path d="M7794 6135 c4 -11 12 -39 19 -62 6 -24 15 -43 19 -43 11 0 10 5 -4
54 -7 22 -19 48 -27 56 -13 13 -14 13 -7 -5z"/>
<path d="M7720 6114 c0 -14 4 -23 9 -20 5 3 7 15 4 26 -7 28 -13 25 -13 -6z"/>
<path d="M7926 6113 c-6 -14 -5 -15 5 -6 7 7 10 15 7 18 -3 3 -9 -2 -12 -12z"/>
<path d="M7741 6051 c-1 -24 2 -32 9 -25 7 7 7 19 1 35 -9 23 -10 22 -10 -10z"/>
<path d="M2582 6055 c11 -13 14 -25 8 -35 -23 -42 -80 -316 -102 -497 -4 -32
-4 -33 16 -15 12 9 25 23 29 30 4 6 19 12 32 12 14 0 25 4 25 9 0 5 -7 8 -16
7 -36 -3 -39 28 -15 161 12 70 32 165 44 211 l21 82 -29 28 c-16 15 -22 18
-13 7z"/>
<path d="M2321 6044 c0 -11 3 -14 6 -6 3 7 2 16 -1 19 -3 4 -6 -2 -5 -13z"/>
<path d="M7957 6011 c-4 -17 -3 -21 5 -13 5 5 8 16 6 23 -3 8 -7 3 -11 -10z"/>
<path d="M7761 5995 c0 -11 4 -27 9 -35 9 -13 10 -13 9 0 0 8 -4 24 -9 35 l-9
20 0 -20z"/>
<path d="M7475 5991 c-11 -5 -23 -7 -27 -4 -5 2 -8 0 -8 -5 0 -12 51 -35 59
-26 3 4 0 9 -7 11 -10 4 -10 8 -1 19 13 16 12 16 -16 5z"/>
<path d="M7847 5993 c-4 -6 1 -45 11 -88 17 -73 19 -75 35 -57 22 24 31 65 14
59 -7 -2 -11 -11 -9 -21 2 -9 -1 -16 -6 -16 -10 0 -22 57 -14 65 3 3 12 -1 20
-8 13 -11 14 -9 1 10 -9 15 -16 18 -20 11 -5 -7 -11 2 -16 22 -5 20 -12 30
-16 23z"/>
<path d="M7964 5982 c-6 -4 -8 -16 -4 -26 6 -18 7 -18 13 4 7 28 6 32 -9 22z"/>
<path d="M7510 5969 c0 -5 5 -7 10 -4 6 3 10 8 10 11 0 2 -4 4 -10 4 -5 0 -10
-5 -10 -11z"/>
<path d="M7925 5951 c-3 -5 -2 -12 3 -15 5 -3 9 1 9 9 0 17 -3 19 -12 6z"/>
<path d="M7781 5908 c-1 -21 4 -38 9 -38 11 0 11 14 0 50 -7 22 -8 21 -9 -12z"/>
<path d="M7987 5891 c-4 -17 -3 -21 5 -13 5 5 8 16 6 23 -3 8 -7 3 -11 -10z"/>
<path d="M2161 5854 c0 -11 3 -14 6 -6 3 7 2 16 -1 19 -3 4 -6 -2 -5 -13z"/>
<path d="M7801 5844 c0 -11 3 -14 6 -6 3 7 2 16 -1 19 -3 4 -6 -2 -5 -13z"/>
<path d="M7998 5835 c-4 -16 -4 -42 -1 -56 3 -15 0 -30 -6 -33 -10 -7 -17 22
-11 49 1 6 -4 5 -11 -2 -10 -10 -15 -7 -26 13 -7 15 -10 31 -6 37 3 6 1 7 -5
3 -7 -4 -12 -16 -12 -26 0 -10 -5 -22 -12 -26 -8 -5 -9 0 -6 14 4 12 3 24 -2
27 -18 11 -18 -28 0 -131 10 -60 19 -101 19 -90 1 15 4 16 16 6 12 -10 12 -15
-2 -36 -11 -17 -13 -36 -9 -66 4 -24 7 -100 7 -170 1 -100 3 -126 14 -122 7 3
16 1 20 -5 3 -6 -1 -11 -9 -11 -9 0 -16 -7 -16 -15 0 -8 -4 -15 -10 -15 -5 0
-9 -17 -9 -37 1 -21 4 -29 6 -17 4 19 8 20 46 13 23 -4 54 -8 70 -9 l27 0 -1
158 c-1 89 -5 144 -9 127 -4 -16 -5 -82 -4 -145 2 -63 2 -110 -1 -104 -4 7
-22 10 -49 7 -27 -3 -46 -1 -50 6 -4 6 -4 11 1 10 26 -4 46 2 37 11 -12 12 4
110 18 110 4 0 8 -18 8 -40 0 -22 5 -40 10 -40 13 0 12 204 -1 235 -8 20 -11
-6 -13 -108 -1 -20 -5 -37 -10 -37 -10 0 -1 143 10 162 11 17 5 130 -7 143
-12 12 -11 88 1 141 5 22 6 53 1 70 l-7 29 -6 -30z m-73 -75 c3 -5 1 -10 -4
-10 -6 0 -11 5 -11 10 0 6 2 10 4 10 3 0 8 -4 11 -10z m69 -175 c3 -8 1 -15
-4 -15 -6 0 -10 7 -10 15 0 8 2 15 4 15 2 0 6 -7 10 -15z m-44 -65 c0 -5 -5
-10 -11 -10 -5 0 -7 5 -4 10 3 6 8 10 11 10 2 0 4 -4 4 -10z m23 -96 c-3 -9 0
-20 8 -25 11 -7 11 -9 1 -9 -7 0 -12 -6 -11 -12 1 -7 1 -24 0 -37 -1 -19 -4
-21 -15 -11 -10 8 -12 18 -7 33 5 12 6 28 4 35 -3 7 1 19 7 27 16 19 21 19 13
-1z"/>
<path d="M2152 5800 c0 -14 2 -19 5 -12 2 6 2 18 0 25 -3 6 -5 1 -5 -13z"/>
<path d="M7803 5800 c-1 -11 2 -20 8 -20 5 0 9 9 9 20 0 11 -4 20 -8 20 -4 0
-8 -9 -9 -20z"/>
<path d="M2142 5750 c0 -14 2 -19 5 -12 2 6 2 18 0 25 -3 6 -5 1 -5 -13z"/>
<path d="M7821 5718 c0 -33 3 -58 9 -58 12 0 12 20 1 75 -9 40 -9 39 -10 -17z"/>
<path d="M2131 5694 c0 -11 3 -14 6 -6 3 7 2 16 -1 19 -3 4 -6 -2 -5 -13z"/>
<path d="M8032 5690 c0 -14 2 -19 5 -12 2 6 2 18 0 25 -3 6 -5 1 -5 -13z"/>
<path d="M2242 5675 c0 -16 2 -22 5 -12 2 9 2 23 0 30 -3 6 -5 -1 -5 -18z"/>
<path d="M2311 5674 c0 -11 3 -14 6 -6 3 7 2 16 -1 19 -3 4 -6 -2 -5 -13z"/>
<path d="M2122 5625 c0 -16 2 -22 5 -12 2 9 2 23 0 30 -3 6 -5 -1 -5 -18z"/>
<path d="M7840 5620 c-1 -19 -1 -42 1 -50 1 -8 3 -27 3 -42 0 -16 4 -28 8 -28
10 0 9 37 -2 105 -7 46 -8 47 -10 15z"/>
<path d="M8043 5610 c0 -25 2 -35 4 -22 2 12 2 32 0 45 -2 12 -4 2 -4 -23z"/>
<path d="M2081 5614 c0 -11 3 -14 6 -6 3 7 2 16 -1 19 -3 4 -6 -2 -5 -13z"/>
<path d="M2227 5623 c-3 -5 -1 -17 4 -28 7 -17 8 -17 8 8 1 27 -4 34 -12 20z"/>
<path d="M2113 5555 c0 -22 2 -30 4 -17 2 12 2 30 0 40 -3 9 -5 -1 -4 -23z"/>
<path d="M8052 5520 c0 -19 2 -27 5 -17 2 9 2 25 0 35 -3 9 -5 1 -5 -18z"/>
<path d="M7725 5520 c-6 -10 1 -14 19 -11 5 1 6 -5 3 -13 -4 -9 -3 -17 1 -20
4 -3 8 4 9 14 2 23 -22 46 -32 30z"/>
<path d="M2072 5470 c0 -14 2 -19 5 -12 2 6 2 18 0 25 -3 6 -5 1 -5 -13z"/>
<path d="M7864 5395 c0 -49 1 -71 3 -48 2 23 2 64 0 90 -2 26 -3 8 -3 -42z"/>
<path d="M7770 5417 c4 -41 5 -41 8 -8 2 18 0 37 -5 42 -5 5 -6 -11 -3 -34z"/>
<path d="M2463 5375 c0 -22 2 -30 4 -17 2 12 2 30 0 40 -3 9 -5 -1 -4 -23z"/>
<path d="M7655 5258 c-2 -7 -9 -80 -15 -163 -17 -231 -71 -512 -100 -530 -6
-4 -4 -15 5 -28 8 -12 16 -35 16 -52 1 -21 4 -15 9 20 4 28 17 84 29 125 53
188 104 640 72 640 -6 0 -13 -6 -16 -12z"/>
<path d="M7487 5133 c-10 -190 -75 -544 -110 -593 -6 -8 1 -3 16 11 14 15 30
29 35 30 9 4 47 160 71 289 15 77 31 250 31 326 0 56 -2 64 -18 64 -17 0 -20
-13 -25 -127z"/>
<path d="M7862 5165 c0 -16 2 -22 5 -12 2 9 2 23 0 30 -3 6 -5 -1 -5 -18z"/>
<path d="M7947 5079 c-18 -20 -17 -49 1 -49 17 0 42 37 36 54 -8 21 -16 20
-37 -5z m19 -16 c-2 -9 -8 -19 -15 -21 -10 -3 -10 0 -2 17 14 25 20 27 17 4z"/>
<path d="M7910 5051 c0 -17 4 -32 8 -35 4 -2 6 11 4 30 -5 42 -12 45 -12 5z"/>
<path d="M8052 5020 c0 -19 2 -27 5 -17 2 9 2 25 0 35 -3 9 -5 1 -5 -18z"/>
<path d="M2482 5005 c0 -16 2 -22 5 -12 2 9 2 23 0 30 -3 6 -5 -1 -5 -18z"/>
<path d="M7901 4974 c0 -11 3 -14 6 -6 3 7 2 16 -1 19 -3 4 -6 -2 -5 -13z"/>
<path d="M8043 4920 c0 -25 2 -35 4 -22 2 12 2 32 0 45 -2 12 -4 2 -4 -23z"/>
<path d="M2321 4834 c0 -11 3 -14 6 -6 3 7 2 16 -1 19 -3 4 -6 -2 -5 -13z"/>
<path d="M8031 4824 c0 -11 3 -14 6 -6 3 7 2 16 -1 19 -3 4 -6 -2 -5 -13z"/>
<path d="M8022 4765 c0 -16 2 -22 5 -12 2 9 2 23 0 30 -3 6 -5 -1 -5 -18z"/>
<path d="M2087 4763 c-4 -3 -7 -13 -7 -21 0 -18 13 -7 16 13 2 17 1 18 -9 8z"/>
<path d="M8001 4644 c0 -11 3 -14 6 -6 3 7 2 16 -1 19 -3 4 -6 -2 -5 -13z"/>
<path d="M7980 4624 c0 -10 5 -26 10 -34 8 -11 9 -7 4 15 -8 37 -14 45 -14 19z"/>
<path d="M7892 4569 c2 -7 10 -15 17 -17 8 -3 12 1 9 9 -2 7 -10 15 -17 17 -8
3 -12 -1 -9 -9z"/>
<path d="M7981 4544 c0 -11 3 -14 6 -6 3 7 2 16 -1 19 -3 4 -6 -2 -5 -13z"/>
<path d="M2621 4430 c0 -8 4 -22 9 -30 12 -18 12 -2 0 25 -6 13 -9 15 -9 5z"/>
<path d="M7306 4385 c-9 -26 -7 -32 5 -12 6 10 9 21 6 23 -2 3 -7 -2 -11 -11z"/>
<path d="M2664 4307 c2 -15 13 -41 25 -58 l22 -30 -38 -16 c-34 -15 -95 -20
-132 -11 -7 1 -15 -2 -18 -9 -3 -8 7 -11 34 -8 l38 5 -32 -12 c-20 -6 -33 -18
-33 -28 0 -22 11 -32 24 -22 21 16 167 63 176 57 6 -4 24 -33 40 -65 34 -67
109 -187 152 -242 l28 -36 -46 -31 c-26 -17 -51 -28 -57 -24 -6 4 -7 1 -2 -7
6 -10 4 -12 -11 -6 -10 4 -15 4 -11 0 4 -4 -3 -14 -14 -22 -18 -12 -23 -13
-31 -1 -6 10 -7 6 -3 -11 11 -39 22 -45 50 -26 14 9 31 14 37 10 7 -4 8 -3 4
4 -11 18 48 44 65 29 11 -10 11 -9 0 5 -11 14 -8 19 18 33 30 15 31 15 43 -10
6 -14 15 -25 20 -25 4 0 9 -10 9 -22 1 -15 4 -10 8 12 5 29 3 38 -17 51 -32
22 -55 57 -46 71 4 7 3 8 -4 4 -7 -4 -12 -1 -12 8 0 8 -4 16 -8 18 -11 4 -88
132 -145 240 -46 87 -50 113 -19 121 10 3 2 5 -16 6 -44 1 -68 15 -86 49 l-15
27 3 -28z"/>
<path d="M7476 4265 c-9 -26 -7 -32 5 -12 6 10 9 21 6 23 -2 3 -7 -2 -11 -11z"/>
<path d="M7226 4213 c-6 -14 -5 -15 5 -6 7 7 10 15 7 18 -3 3 -9 -2 -12 -12z"/>
<path d="M7191 4173 c3 -20 -2 -34 -10 -28 -6 3 -9 -4 -8 -15 2 -26 4 -25 22
9 10 20 11 32 5 36 -6 4 -10 3 -9 -2z"/>
<path d="M7395 4100 c-9 -16 -13 -30 -11 -30 3 0 12 14 21 30 9 17 13 30 11
30 -3 0 -12 -13 -21 -30z"/>
<path d="M7154 4085 c-4 -8 -10 -13 -14 -10 -5 3 -11 1 -14 -4 -4 -5 1 -8 10
-7 15 2 42 36 29 36 -3 0 -8 -7 -11 -15z"/>
<path d="M7103 4015 c0 -8 4 -12 9 -9 5 3 6 10 3 15 -9 13 -12 11 -12 -6z"/>
<path d="M7076 3978 c3 -5 10 -6 15 -3 13 9 11 12 -6 12 -8 0 -12 -4 -9 -9z"/>
<path d="M7051 3956 c-7 -8 -8 -17 -3 -20 6 -3 15 1 21 8 7 8 8 17 3 20 -6 3
-15 -1 -21 -8z"/>
<path d="M6967 3846 c-36 -45 -73 -88 -81 -95 -9 -7 -13 -18 -10 -25 3 -6 -2
-2 -10 8 -16 20 -16 20 -16 0 0 -16 -2 -17 -11 -4 -9 13 -10 13 -8 0 3 -27 -1
-40 -10 -37 -5 1 -10 -2 -10 -8 -1 -5 -26 -35 -56 -65 -41 -42 -52 -59 -45
-70 6 -10 10 -11 10 -2 0 6 -1 14 -2 15 -5 7 24 37 31 32 8 -5 184 169 182
180 -1 3 9 15 23 26 14 11 25 23 25 27 -3 19 2 33 10 28 5 -3 14 1 21 9 7 8 9
15 5 15 -4 0 3 8 16 18 13 11 18 21 12 25 -6 4 -40 -31 -76 -77z m3 -20 c0 -2
-8 -10 -17 -17 -16 -13 -17 -12 -4 4 13 16 21 21 21 13z m-50 -59 c0 -2 -10
-12 -22 -23 l-23 -19 19 23 c18 21 26 27 26 19z m-50 -51 c0 -2 -8 -10 -17
-17 -16 -13 -17 -12 -4 4 13 16 21 21 21 13z m-46 -34 c3 -5 -14 -26 -37 -48
l-42 -39 38 41 c20 22 34 43 31 47 -4 4 -5 7 -1 7 3 0 8 -4 11 -8z"/>
<path d="M7219 3823 c-13 -16 -12 -17 4 -4 16 13 21 21 13 21 -2 0 -10 -8 -17
-17z"/>
<path d="M6906 3803 c-6 -14 -5 -15 5 -6 7 7 10 15 7 18 -3 3 -9 -2 -12 -12z"/>
<path d="M7189 3783 c-13 -16 -12 -17 4 -4 16 13 21 21 13 21 -2 0 -10 -8 -17
-17z"/>
<path d="M7159 3743 c-13 -16 -12 -17 4 -4 16 13 21 21 13 21 -2 0 -10 -8 -17
-17z"/>
<path d="M2427 3730 c4 -16 8 -18 19 -9 8 6 14 14 14 17 0 3 -3 2 -7 -1 -3 -4
-12 -2 -19 4 -9 8 -11 5 -7 -11z"/>
<path d="M6403 3688 c-16 -18 -33 -41 -36 -50 -7 -20 -27 -25 -27 -7 0 8 -5 8
-15 -1 -21 -17 -19 -33 8 -49 20 -13 21 -13 8 2 -11 14 -10 18 12 28 14 7 27
21 29 33 2 13 12 22 25 24 15 2 20 8 16 19 -4 10 -2 14 4 10 5 -3 10 0 10 8 0
19 2 20 -34 -17z m-63 -72 c0 -3 -4 -8 -10 -11 -5 -3 -10 -1 -10 4 0 6 5 11
10 11 6 0 10 -2 10 -4z"/>
<path d="M7114 3688 l-19 -23 23 19 c12 11 22 21 22 23 0 8 -8 2 -26 -19z"/>
<path d="M2826 3678 c3 -5 10 -6 15 -3 13 9 11 12 -6 12 -8 0 -12 -4 -9 -9z"/>
<path d="M3053 3664 c9 -11 14 -24 10 -29 -5 -4 -3 -5 3 -2 12 7 42 -20 43
-38 1 -5 4 -10 9 -10 16 0 32 -17 26 -27 -4 -6 -2 -8 3 -5 11 7 50 -30 46 -42
-2 -3 3 -6 10 -6 6 0 12 -6 12 -14 0 -8 8 -15 18 -17 9 -1 17 -1 17 0 0 1 -48
49 -107 106 -59 58 -99 96 -90 84z"/>
<path d="M2466 3662 c-2 -4 4 -8 14 -8 10 0 16 4 14 8 -3 4 -9 8 -14 8 -5 0
-11 -4 -14 -8z"/>
<path d="M2832 3643 c6 -7 13 -11 16 -8 3 3 15 -3 26 -12 18 -15 18 -14 -2 8
-23 27 -62 38 -40 12z"/>
<path d="M6975 3538 l-90 -93 93 90 c85 83 97 95 89 95 -1 0 -43 -42 -92 -92z"/>
<path d="M2585 3599 c-4 -6 -5 -12 -2 -15 2 -3 7 2 10 11 7 17 1 20 -8 4z"/>
<path d="M2604 3573 c3 -16 16 -22 16 -8 0 3 0 10 0 15 0 6 -4 10 -9 10 -5 0
-8 -8 -7 -17z"/>
<path d="M6255 3579 c-6 -8 -4 -10 5 -4 10 6 12 4 6 -11 -6 -15 -5 -17 5 -6 9
9 10 15 2 23 -8 8 -13 7 -18 -2z"/>
<path d="M6296 3559 c2 -4 0 -10 -6 -14 -6 -4 -7 -11 -4 -17 5 -7 12 -4 21 7
17 24 17 32 -2 32 -8 0 -12 -4 -9 -8z"/>
<path d="M3520 3495 c13 -14 26 -25 28 -25 3 0 -5 11 -18 25 -13 14 -26 25
-28 25 -3 0 5 -11 18 -25z"/>
<path d="M6219 3517 c0 -1 -2 -10 -4 -20 -3 -13 0 -15 9 -8 9 7 16 7 25 -2 10
-9 11 -9 6 5 -5 13 -33 33 -36 25z"/>
<path d="M6526 3474 c-4 -10 -2 -22 3 -27 7 -7 13 -5 17 7 4 10 2 22 -3 27 -7
7 -13 5 -17 -7z"/>
<path d="M6195 3444 c12 -12 13 -19 5 -24 -8 -5 -9 -10 -2 -14 6 -3 13 -2 17
4 4 6 11 8 16 4 5 -3 8 0 7 8 -2 7 3 12 10 10 8 -1 11 2 8 7 -4 5 0 12 6 14 7
3 1 6 -14 6 -20 1 -26 -3 -22 -14 4 -8 1 -15 -5 -15 -6 0 -11 7 -11 15 0 8 -7
15 -16 15 -14 0 -14 -2 1 -16z"/>
<path d="M6669 3433 c-13 -16 -12 -17 4 -4 9 7 17 15 17 17 0 8 -8 3 -21 -13z"/>
<path d="M3304 3413 c2 -10 7 -18 12 -18 5 0 16 -4 24 -9 8 -5 4 3 -9 17 -29
32 -30 32 -27 10z"/>
<path d="M6053 3413 c-7 -2 -13 -11 -13 -18 0 -8 -9 -19 -20 -25 -11 -6 -18
-16 -14 -21 4 -6 13 -4 24 6 17 15 19 15 30 -2 10 -15 11 -16 6 -1 -6 21 13
36 24 18 5 -9 9 -9 14 -1 11 17 25 13 22 -6 -2 -9 -11 -20 -22 -24 -15 -6 -16
-8 -3 -8 9 -1 22 6 29 14 7 8 9 15 5 15 -4 0 -3 6 3 13 8 10 5 13 -14 15 -14
1 -32 9 -40 17 -9 8 -16 15 -17 14 -1 0 -8 -3 -14 -6z"/>
<path d="M6250 3400 c0 -13 -5 -18 -15 -14 -11 5 -13 2 -9 -11 5 -13 2 -16
-17 -15 -52 5 -62 1 -49 -15 7 -9 10 -18 6 -22 -3 -3 -6 -1 -6 6 0 20 -37 -5
-43 -30 -3 -11 -3 -18 0 -15 3 3 14 1 24 -5 15 -7 17 -6 13 5 -3 8 3 19 15 26
13 7 21 7 21 1 0 -6 7 -8 16 -4 13 5 13 7 2 14 -16 10 -15 11 39 12 23 0 40 5
37 9 -3 4 1 8 9 8 8 0 20 6 27 14 9 12 5 16 -24 22 -20 3 -36 10 -36 16 0 5 5
6 12 2 7 -4 8 -3 4 4 -11 19 -26 14 -26 -8z"/>
<path d="M3383 3345 c0 -8 4 -12 9 -9 5 3 6 10 3 15 -9 13 -12 11 -12 -6z"/>
<path d="M5816 3352 c-4 -7 -12 -10 -17 -7 -5 4 -9 2 -9 -4 0 -9 38 -26 44
-19 2 1 0 12 -4 22 -4 14 -9 16 -14 8z"/>
<path d="M3420 3326 c0 -2 8 -10 18 -17 15 -13 16 -12 3 4 -13 16 -21 21 -21
13z"/>
<path d="M6735 3280 c3 -5 8 -10 11 -10 2 0 4 5 4 10 0 6 -5 10 -11 10 -5 0
-7 -4 -4 -10z"/>
<path d="M3603 3185 c0 -8 4 -12 9 -9 5 3 6 10 3 15 -9 13 -12 11 -12 -6z"/>
<path d="M6835 3180 c-4 -6 -12 -7 -18 -3 -7 4 -6 0 2 -10 7 -9 10 -17 5 -18
-5 0 -18 -3 -29 -5 -11 -3 -25 -6 -32 -6 -7 -1 -11 -4 -10 -7 1 -3 -2 -8 -8
-10 -18 -8 -32 -26 -32 -43 0 -15 3 -15 29 3 15 11 25 25 21 31 -4 7 -1 9 9 6
18 -7 96 56 80 66 -6 3 -13 2 -17 -4z m-75 -75 c0 -2 -10 -9 -22 -15 -22 -11
-22 -10 -4 4 21 17 26 19 26 11z"/>
<path d="M6647 3136 c-4 -10 -1 -13 8 -9 8 3 12 9 9 14 -7 12 -11 11 -17 -5z"/>
<path d="M6685 3100 c3 -5 8 -10 11 -10 2 0 4 5 4 10 0 6 -5 10 -11 10 -5 0
-7 -4 -4 -10z"/>
<path d="M6676 3061 c-4 -5 -2 -12 3 -15 5 -4 12 -2 15 3 4 5 2 12 -3 15 -5 4
-12 2 -15 -3z"/>
<path d="M6545 3020 c3 -5 13 -10 21 -10 8 0 12 5 9 10 -3 6 -13 10 -21 10 -8
0 -12 -4 -9 -10z"/>
<path d="M4234 2928 l-19 -23 23 19 c12 11 22 21 22 23 0 8 -8 2 -26 -19z"/>
<path d="M6404 2895 c0 -20 3 -22 18 -14 23 12 24 21 1 12 -10 -4 -14 -2 -9 5
3 6 3 13 -2 16 -4 2 -8 -6 -8 -19z"/>
<path d="M6982 2795 c-159 -138 -361 -272 -561 -372 -80 -40 -137 -73 -128
-73 42 0 316 153 472 263 129 92 305 238 284 237 -2 0 -32 -25 -67 -55z"/>
<path d="M6185 2780 c-3 -6 1 -7 9 -4 18 7 21 14 7 14 -6 0 -13 -4 -16 -10z"/>
</g>
</svg>
